<svg version="1.1" id="Layer_1" xmlns="http://www.w3.org/2000/svg" xmlns:xlink="http://www.w3.org/1999/xlink" x="0px" y="0px"
	 width="100%" viewBox="0 0 1200 1200" enable-background="new 0 0 110 120" xml:space="preserve">
<path fill="rgba(0, 0, 0, 0)" opacity="1.000000" stroke="none" 
	d="
M829.000000,1201.000000 
	C552.666687,1201.000000 276.833344,1201.000000 1.000000,1201.000000 
	C1.000000,801.000000 1.000000,401.000000 1.000000,1.000000 
	C401.000000,1.000000 801.000000,1.000000 1201.000000,1.000000 
	C1201.000000,401.000000 1201.000000,801.000000 1201.000000,1201.000000 
	C1077.166626,1201.000000 953.333313,1201.000000 829.000000,1201.000000 
M215.401657,565.956543 
	C197.302719,574.668396 183.870789,588.230408 173.212555,605.125854 
	C162.018585,622.870544 155.946198,642.266052 154.264404,662.838257 
	C153.402847,673.376953 154.504349,684.274170 156.168945,694.779480 
	C159.471817,715.624207 169.992630,732.370728 187.640839,744.289795 
	C220.513947,766.491272 271.171936,763.162292 302.651825,736.583740 
	C307.766693,732.265320 312.145905,727.075562 317.045532,722.105591 
	C337.646881,767.042297 408.941589,768.693970 439.942902,721.330688 
	C444.928406,731.267029 451.221893,739.888245 460.563904,745.951477 
	C469.704926,751.884399 479.828949,754.917480 490.233917,756.116028 
	C483.376251,760.661987 476.209137,764.753418 469.787445,769.794495 
	C451.043152,784.508911 439.787994,803.206787 439.953613,827.828125 
	C440.100708,849.700012 449.614502,866.320740 467.709869,878.067505 
	C485.465729,889.593811 505.056702,890.991150 525.303833,887.284973 
	C536.685608,885.201660 547.065552,880.932983 554.418335,871.434204 
	C565.451843,857.180359 560.218201,840.050049 543.273865,834.273987 
	C541.640442,833.717163 540.301880,832.295593 538.826477,831.275391 
	C539.997986,829.612671 540.805542,827.192017 542.406372,826.423157 
	C548.207581,823.636902 554.105469,820.795959 560.273987,819.078857 
	C578.145691,814.104065 596.546997,812.690125 615.010925,811.610229 
	C646.180908,809.787231 677.238220,810.881531 708.205627,814.535400 
	C732.978577,817.458496 757.715759,820.692566 782.450745,823.927185 
	C813.613281,828.002441 844.734741,832.399963 875.916687,836.317688 
	C901.525818,839.535339 927.238281,842.022278 953.088928,840.813538 
	C969.441772,840.048828 984.911804,836.030396 998.191284,825.624817 
	C1019.317566,809.070618 1028.080811,786.937073 1028.316284,760.673523 
	C1028.463745,744.230957 1025.912231,729.047974 1010.886047,718.311218 
	C1011.809570,717.653442 1012.532471,717.221130 1013.160828,716.679199 
	C1035.516846,697.395386 1043.626099,668.137268 1034.742432,639.766907 
	C1034.204712,638.049683 1035.035400,635.330688 1036.169189,633.753479 
	C1045.764160,620.407288 1049.599854,605.729614 1047.004028,589.457947 
	C1043.001099,564.366516 1018.392273,550.078674 994.231812,554.809814 
	C985.354736,556.548157 978.302979,561.033325 971.160522,566.833984 
	C971.082703,565.630127 971.022217,565.022766 971.007263,564.414185 
	C970.797974,555.894653 968.353149,552.981445 959.690857,550.958557 
	C956.047424,550.107727 952.429565,549.110291 948.751160,548.453125 
	C932.685669,545.582825 916.607422,542.782166 900.522339,540.023071 
	C894.694824,539.023438 888.835205,538.210876 883.134216,537.334961 
	C881.635132,526.779358 879.238953,524.149109 869.002991,522.008850 
	C851.286133,518.304443 833.591858,514.465271 815.800537,511.153168 
	C804.247986,509.002533 792.546387,507.640747 780.899475,506.012299 
	C772.612976,504.853699 764.306213,503.839722 756.087952,502.771515 
	C754.286987,465.713104 753.167358,460.894867 737.734924,423.929596 
	C743.253967,418.516541 749.096497,413.067719 754.568298,407.269043 
	C756.519897,405.200928 758.293152,402.435089 758.859436,399.719116 
	C759.618347,396.078979 761.164429,395.934937 764.362854,396.119934 
	C771.440186,396.529236 778.764648,397.365082 785.622681,396.078400 
	C820.855530,389.468201 847.323669,359.837921 849.487244,324.066742 
	C850.421021,308.628204 845.080261,294.770020 832.502014,284.842041 
	C813.929443,270.182892 793.739807,271.681122 773.414368,280.332886 
	C761.083557,285.581635 751.007874,294.000122 742.726196,304.678925 
	C729.794495,321.353760 723.853821,339.774872 727.264648,360.900513 
	C727.411011,361.806702 726.229736,363.279572 725.284607,363.946777 
	C721.766724,366.430206 717.889893,368.435944 714.527527,371.100128 
	C711.185181,373.748383 708.299622,376.973083 706.149353,379.044006 
	C692.620850,369.306580 679.879089,358.783508 665.879272,350.348755 
	C639.243408,334.300995 610.176331,324.931244 578.938904,322.992554 
	C575.010803,322.748749 572.254272,321.642578 569.968323,317.643066 
	C560.952515,301.869202 545.401306,297.090210 531.781372,299.267670 
	C515.681030,301.841736 505.434875,311.902039 500.174408,327.277252 
	C499.631622,328.863708 497.866974,330.634033 496.281403,331.168640 
	C480.394653,336.525146 464.852020,342.726807 450.916901,352.114502 
	C440.154083,359.365051 430.022491,367.552612 419.485046,375.417084 
	C412.637054,369.122223 405.162903,362.251709 397.318268,355.040680 
	C401.861938,337.829926 398.303223,321.696350 384.515015,308.138153 
	C375.840576,299.608398 367.152069,291.083374 358.753815,282.285187 
	C350.894745,274.051880 341.580139,268.736420 330.517975,266.184326 
	C319.766388,263.703857 311.322266,267.824066 307.156769,277.996399 
	C304.535126,277.996399 301.854187,277.793732 299.213135,278.032135 
	C288.861603,278.966644 280.685211,289.383789 282.695374,300.094025 
	C283.271179,303.161957 282.199432,303.953400 279.922607,305.050964 
	C273.508087,308.143127 270.562469,313.889008 271.166992,320.502716 
	C272.129333,331.031525 275.645416,340.879059 283.255737,348.678589 
	C293.374695,359.049072 303.350281,369.592407 313.994110,379.403320 
	C319.012787,384.029236 325.075348,387.957397 331.320618,390.718658 
	C341.336700,395.147156 351.982697,394.582703 361.765564,391.414032 
	C367.756775,403.710419 379.198975,410.607208 386.973480,420.458344 
	C379.716675,434.424377 374.554901,448.976013 372.037201,464.391266 
	C370.987396,470.819122 370.804535,477.401489 369.544739,483.778717 
	C368.099518,491.094788 372.355652,498.769806 379.203400,499.934967 
	C387.346039,501.320465 394.032501,496.553802 394.979767,488.615417 
	C399.714142,448.939606 418.980835,417.589142 451.277954,394.883331 
	C499.924591,360.683380 553.190430,355.005981 608.949646,373.813934 
	C647.748962,386.901184 677.525635,411.582153 696.736328,448.191406 
	C704.869324,463.690155 709.212708,480.318604 710.654358,498.361938 
	C706.233337,497.903473 702.021851,497.305695 697.789734,497.057953 
	C684.937256,496.305573 672.078186,495.166534 659.219116,495.131348 
	C635.126831,495.065430 611.028931,495.504425 586.940796,496.055267 
	C572.083252,496.395020 557.233948,497.231384 542.391296,498.035309 
	C533.698608,498.506165 524.998596,499.106873 516.351379,500.086395 
	C503.723022,501.516846 491.135254,503.310974 478.537567,505.004761 
	C466.280731,506.652679 453.944519,507.895172 441.801941,510.165100 
	C422.752045,513.726257 403.732025,517.568970 384.889008,522.084106 
	C361.767761,527.624390 338.811249,533.866211 315.848785,540.047180 
	C308.428925,542.044495 305.819275,545.410461 306.085602,551.985413 
	C306.249390,556.028748 305.302399,558.384094 300.853607,558.147400 
	C298.679626,558.031799 296.469208,558.105286 294.340607,557.726196 
	C287.945129,556.587341 281.626862,554.558044 275.197632,554.150146 
	C254.562683,552.840881 234.638321,555.962463 215.401657,565.956543 
z"/>
<path fill="#F5F5F5" opacity="1.000000" stroke="none" 
	d="
M215.705643,565.719116 
	C234.638321,555.962463 254.562683,552.840881 275.197632,554.150146 
	C281.626862,554.558044 287.945129,556.587341 294.340607,557.726196 
	C296.469208,558.105286 298.679626,558.031799 300.853607,558.147400 
	C305.302399,558.384094 306.249390,556.028748 306.085602,551.985413 
	C305.819275,545.410461 308.428925,542.044495 315.848785,540.047180 
	C338.811249,533.866211 361.767761,527.624390 384.889008,522.084106 
	C403.732025,517.568970 422.752045,513.726257 441.801941,510.165100 
	C453.944519,507.895172 466.280731,506.652679 478.537567,505.004761 
	C491.135254,503.310974 503.723022,501.516846 516.351379,500.086395 
	C524.998596,499.106873 533.698608,498.506165 542.391296,498.035309 
	C557.233948,497.231384 572.083252,496.395020 586.940796,496.055267 
	C611.028931,495.504425 635.126831,495.065430 659.219116,495.131348 
	C672.078186,495.166534 684.937256,496.305573 697.789734,497.057953 
	C702.021851,497.305695 706.233337,497.903473 710.654358,498.361938 
	C709.212708,480.318604 704.869324,463.690155 696.736328,448.191406 
	C677.525635,411.582153 647.748962,386.901184 608.949646,373.813934 
	C553.190430,355.005981 499.924591,360.683380 451.277954,394.883331 
	C418.980835,417.589142 399.714142,448.939606 394.979767,488.615417 
	C394.032501,496.553802 387.346039,501.320465 379.203400,499.934967 
	C372.355652,498.769806 368.099518,491.094788 369.544739,483.778717 
	C370.804535,477.401489 370.987396,470.819122 372.037201,464.391266 
	C374.554901,448.976013 379.716675,434.424377 386.973480,420.458344 
	C379.198975,410.607208 367.756775,403.710419 361.765564,391.414032 
	C351.982697,394.582703 341.336700,395.147156 331.320618,390.718658 
	C325.075348,387.957397 319.012787,384.029236 313.994110,379.403320 
	C303.350281,369.592407 293.374695,359.049072 283.255737,348.678589 
	C275.645416,340.879059 272.129333,331.031525 271.166992,320.502716 
	C270.562469,313.889008 273.508087,308.143127 279.922607,305.050964 
	C282.199432,303.953400 283.271179,303.161957 282.695374,300.094025 
	C280.685211,289.383789 288.861603,278.966644 299.213135,278.032135 
	C301.854187,277.793732 304.535126,277.996399 307.156769,277.996399 
	C311.322266,267.824066 319.766388,263.703857 330.517975,266.184326 
	C341.580139,268.736420 350.894745,274.051880 358.753815,282.285187 
	C367.152069,291.083374 375.840576,299.608398 384.515015,308.138153 
	C398.303223,321.696350 401.861938,337.829926 397.318268,355.040680 
	C405.162903,362.251709 412.637054,369.122223 419.485046,375.417084 
	C430.022491,367.552612 440.154083,359.365051 450.916901,352.114502 
	C464.852020,342.726807 480.394653,336.525146 496.281403,331.168640 
	C497.866974,330.634033 499.631622,328.863708 500.174408,327.277252 
	C505.434875,311.902039 515.681030,301.841736 531.781372,299.267670 
	C545.401306,297.090210 560.952515,301.869202 569.968323,317.643066 
	C572.254272,321.642578 575.010803,322.748749 578.938904,322.992554 
	C610.176331,324.931244 639.243408,334.300995 665.879272,350.348755 
	C679.879089,358.783508 692.620850,369.306580 706.149353,379.044006 
	C708.299622,376.973083 711.185181,373.748383 714.527527,371.100128 
	C717.889893,368.435944 721.766724,366.430206 725.284607,363.946777 
	C726.229736,363.279572 727.411011,361.806702 727.264648,360.900513 
	C723.853821,339.774872 729.794495,321.353760 742.726196,304.678925 
	C751.007874,294.000122 761.083557,285.581635 773.414368,280.332886 
	C793.739807,271.681122 813.929443,270.182892 832.502014,284.842041 
	C845.080261,294.770020 850.421021,308.628204 849.487244,324.066742 
	C847.323669,359.837921 820.855530,389.468201 785.622681,396.078400 
	C778.764648,397.365082 771.440186,396.529236 764.362854,396.119934 
	C761.164429,395.934937 759.618347,396.078979 758.859436,399.719116 
	C758.293152,402.435089 756.519897,405.200928 754.568298,407.269043 
	C749.096497,413.067719 743.253967,418.516541 737.734924,423.929596 
	C753.167358,460.894867 754.286987,465.713104 756.087952,502.771515 
	C764.306213,503.839722 772.612976,504.853699 780.899475,506.012299 
	C792.546387,507.640747 804.247986,509.002533 815.800537,511.153168 
	C833.591858,514.465271 851.286133,518.304443 869.002991,522.008850 
	C879.238953,524.149109 881.635132,526.779358 883.134216,537.334961 
	C888.835205,538.210876 894.694824,539.023438 900.522339,540.023071 
	C916.607422,542.782166 932.685669,545.582825 948.751160,548.453125 
	C952.429565,549.110291 956.047424,550.107727 959.690857,550.958557 
	C968.353149,552.981445 970.797974,555.894653 971.007263,564.414185 
	C971.022217,565.022766 971.082703,565.630127 971.160522,566.833984 
	C978.302979,561.033325 985.354736,556.548157 994.231812,554.809814 
	C1018.392273,550.078674 1043.001099,564.366516 1047.004028,589.457947 
	C1049.599854,605.729614 1045.764160,620.407288 1036.169189,633.753479 
	C1035.035400,635.330688 1034.204712,638.049683 1034.742432,639.766907 
	C1043.626099,668.137268 1035.516846,697.395386 1013.160828,716.679199 
	C1012.532471,717.221130 1011.809570,717.653442 1010.886047,718.311218 
	C1025.912231,729.047974 1028.463745,744.230957 1028.316284,760.673523 
	C1028.080811,786.937073 1019.317566,809.070618 998.191284,825.624817 
	C984.911804,836.030396 969.441772,840.048828 953.088928,840.813538 
	C927.238281,842.022278 901.525818,839.535339 875.916687,836.317688 
	C844.734741,832.399963 813.613281,828.002441 782.450745,823.927185 
	C757.715759,820.692566 732.978577,817.458496 708.205627,814.535400 
	C677.238220,810.881531 646.180908,809.787231 615.010925,811.610229 
	C596.546997,812.690125 578.145691,814.104065 560.273987,819.078857 
	C554.105469,820.795959 548.207581,823.636902 542.406372,826.423157 
	C540.805542,827.192017 539.997986,829.612671 538.826477,831.275391 
	C540.301880,832.295593 541.640442,833.717163 543.273865,834.273987 
	C560.218201,840.050049 565.451843,857.180359 554.418335,871.434204 
	C547.065552,880.932983 536.685608,885.201660 525.303833,887.284973 
	C505.056702,890.991150 485.465729,889.593811 467.709869,878.067505 
	C449.614502,866.320740 440.100708,849.700012 439.953613,827.828125 
	C439.787994,803.206787 451.043152,784.508911 469.787445,769.794495 
	C476.209137,764.753418 483.376251,760.661987 490.233917,756.116028 
	C479.828949,754.917480 469.704926,751.884399 460.563904,745.951477 
	C451.221893,739.888245 444.928406,731.267029 439.942902,721.330688 
	C408.941589,768.693970 337.646881,767.042297 317.045532,722.105591 
	C312.145905,727.075562 307.766693,732.265320 302.651825,736.583740 
	C271.171936,763.162292 220.513947,766.491272 187.640839,744.289795 
	C169.992630,732.370728 159.471817,715.624207 156.168945,694.779480 
	C154.504349,684.274170 153.402847,673.376953 154.264404,662.838257 
	C155.946198,642.266052 162.018585,622.870544 173.212555,605.125854 
	C183.870789,588.230408 197.302719,574.668396 215.705643,565.719116 
M474.785065,867.794373 
	C475.181305,867.890686 475.577576,867.987000 475.994659,868.010742 
	C475.994659,868.010742 475.933075,868.054260 476.171967,868.709900 
	C490.550507,877.134827 506.027496,877.931946 521.984863,875.257507 
	C530.849426,873.771851 539.135742,871.012085 544.875793,863.509338 
	C549.046204,858.058228 548.649231,853.158447 543.525208,848.055786 
	C540.822754,846.284668 538.194458,844.384094 535.395264,842.781921 
	C532.988342,841.404175 530.386414,840.367065 527.858643,838.593872 
	C527.581482,838.370789 527.304321,838.147705 527.016113,837.993530 
	C527.016113,837.993530 527.084900,837.981445 527.113159,837.126038 
	C525.221680,824.921448 527.410950,819.865173 538.549011,814.175232 
	C544.548035,811.110535 551.040649,808.769104 557.554199,806.996521 
	C586.715210,799.060486 616.717285,798.531128 646.610352,798.218567 
	C663.193054,798.045166 679.842529,799.463074 696.380981,801.022156 
	C718.210999,803.080139 739.983643,805.807068 761.740051,808.568848 
	C781.999023,811.140625 802.187988,814.259399 822.437622,816.909729 
	C844.671326,819.819641 866.911194,822.723450 889.199646,825.161865 
	C912.169434,827.674744 935.184692,830.275452 958.354980,827.921448 
	C975.262512,826.203552 989.690918,819.449829 1000.646118,806.151550 
	C1014.337585,789.531799 1017.442566,770.080994 1015.328430,749.385376 
	C1014.746155,743.685730 1013.831177,737.894836 1008.347717,733.488403 
	C1001.304077,722.720093 990.865662,719.358032 979.309021,719.402771 
	C980.673462,718.938660 982.022400,718.421448 983.404602,718.018250 
	C1010.196594,710.202393 1025.686401,689.522705 1025.841675,661.606873 
	C1025.895874,651.875916 1023.239136,642.979492 1018.154663,634.648926 
	C1026.646606,627.252808 1032.641602,618.568176 1034.406494,607.608643 
	C1036.033691,597.503479 1036.454956,587.429749 1029.001831,578.995300 
	C1029.001831,578.995300 1029.067627,579.006348 1028.948120,578.349731 
	C1028.627441,578.050232 1028.306641,577.750671 1027.815308,576.848389 
	C1018.562561,565.923889 1006.969910,561.432922 992.764038,564.052917 
	C974.592834,567.404175 962.722351,586.501831 968.112732,603.962524 
	C968.483337,605.162964 970.059570,605.991272 971.316101,607.736023 
	C971.929626,610.927002 974.321594,610.280212 976.272644,609.760925 
	C982.412720,608.126709 988.262512,609.044739 994.428650,611.840698 
	C995.418518,613.340210 996.408447,614.839661 997.878662,617.066711 
	C982.380676,612.488708 974.208801,611.568115 959.498535,614.132263 
	C937.906250,617.896118 921.630493,629.702454 912.615723,649.635254 
	C904.195923,668.252747 903.997742,686.968933 917.838989,703.961914 
	C914.718628,706.461914 911.626526,708.691833 908.814758,711.231995 
	C889.606750,728.585144 887.837585,759.855652 909.821289,775.541504 
	C910.216858,775.714783 910.612366,775.888062 910.998352,775.999084 
	C910.998352,775.999084 910.940308,776.023621 911.222168,776.658447 
	C921.339050,783.473389 932.585571,783.668823 944.155518,782.495056 
	C953.762390,781.520447 963.130066,777.687805 973.463684,780.648315 
	C975.630432,785.466675 973.742188,789.333313 969.330139,790.714844 
	C962.762085,792.771301 955.778625,794.970947 949.044434,794.762939 
	C924.963440,794.019165 900.688477,793.887817 876.903259,790.554443 
	C840.795776,785.494080 804.963928,778.323303 769.148499,771.362183 
	C729.718323,763.698364 690.338745,755.513062 650.260986,752.414246 
	C621.263733,750.172119 592.106750,749.635437 563.007996,749.197571 
	C544.500977,748.919067 526.276550,752.254028 508.689850,758.167664 
	C488.775635,764.863892 471.018402,774.887634 458.857513,792.817261 
	C441.779785,817.996155 447.624878,849.350281 472.916809,866.594299 
	C473.599640,866.776855 474.282501,866.959473 474.861938,867.046997 
	C474.861938,867.046997 474.774200,867.156616 474.785065,867.794373 
M689.068848,694.882629 
	C689.068848,694.882629 689.202148,694.940918 689.312988,694.243469 
	C688.852844,693.718872 688.392761,693.194214 687.642700,692.107971 
	C685.503357,689.372803 683.364014,686.637634 681.518494,684.278137 
	C669.950806,690.929688 663.472168,690.685242 658.502014,684.013123 
	C662.567078,682.206238 666.790100,680.684631 670.666443,678.537109 
	C680.780273,672.933960 689.427734,665.716980 692.242004,653.879517 
	C694.419678,644.719788 694.782776,635.545410 686.935242,627.453796 
	C685.936829,626.165710 685.039795,624.781616 683.924377,623.604370 
	C673.039673,612.117004 655.944336,609.432312 639.806946,616.569336 
	C638.285583,617.242065 636.610840,617.568115 634.903992,617.286072 
	C636.581299,608.951111 638.974609,600.676208 639.680298,592.259766 
	C640.138794,586.791199 638.804749,580.843628 633.331604,576.438782 
	C626.358093,565.532227 613.910217,560.862244 599.761658,564.296753 
	C588.078613,567.132690 576.850403,577.154114 576.381104,590.137939 
	C585.750549,596.964233 588.321045,595.309204 586.917358,608.804016 
	C585.572632,621.731689 582.274536,634.477173 579.502625,647.230469 
	C575.323669,666.457458 570.157837,685.498840 566.754211,704.855225 
	C564.458252,717.912048 569.339233,729.245178 581.036499,737.733276 
	C593.785645,746.115356 612.155762,744.208374 622.735596,733.404846 
	C630.125793,725.858093 630.675842,714.724487 624.009521,706.991577 
	C624.009521,706.991577 624.078186,706.990601 624.078308,706.374756 
	C623.712036,705.905579 623.345764,705.436340 622.971008,705.016235 
	C622.971008,705.016235 623.018066,705.032532 622.939636,704.428284 
	C622.650208,704.241943 622.360718,704.055664 622.066162,703.955566 
	C622.066162,703.955566 622.151123,703.940369 622.225342,703.132324 
	C619.638123,695.518433 618.321228,687.863098 621.841370,680.852722 
	C622.915710,682.791931 624.584595,684.625854 624.950378,686.690613 
	C625.960693,692.393433 626.103394,698.253479 627.173035,703.941589 
	C629.613220,716.917175 634.200256,728.828796 645.812805,737.550537 
	C646.210144,737.721497 646.607544,737.892395 646.996338,738.000305 
	C646.996338,738.000305 646.938965,738.027649 647.225891,738.664612 
	C655.306458,744.106567 664.130493,745.033203 673.425293,742.909180 
	C693.922119,738.225403 703.314514,711.665894 690.012024,695.991638 
	C690.012024,695.991638 690.086426,695.973022 690.115906,695.342468 
	C689.793823,695.148926 689.471802,694.955383 689.068848,694.882629 
M435.064972,634.961670 
	C435.064972,634.961670 435.150635,634.948364 435.226227,634.275574 
	C434.739166,633.884033 434.252106,633.492432 433.322723,632.596680 
	C427.785339,624.050842 420.074005,618.035645 410.378265,615.428345 
	C391.112030,610.247314 372.330505,611.903931 355.536285,623.258972 
	C332.479156,638.848450 320.699310,661.114807 320.304443,688.882141 
	C320.039124,707.538391 326.950348,723.183289 343.172546,734.626160 
	C343.771393,734.795654 344.370239,734.965088 344.932922,735.058105 
	C344.932922,735.058105 344.866425,735.110352 345.034851,735.780090 
	C345.641022,735.957458 346.247162,736.134766 346.814697,736.202271 
	C346.814697,736.202271 346.761597,736.305908 346.897461,736.970886 
	C364.566010,746.580261 382.882721,746.372620 400.684326,738.500916 
	C423.417542,728.448425 435.780029,709.443909 441.956024,685.972046 
	C442.748810,682.959167 443.502075,679.935852 443.988831,677.959534 
	C443.877838,680.605225 443.751099,683.250366 443.658356,685.896667 
	C442.934845,706.544739 449.765930,723.514160 468.035858,735.697205 
	C489.519104,749.345642 521.803284,745.774658 541.003052,727.541321 
	C561.316833,708.250122 569.533752,684.421448 566.741821,656.797180 
	C565.909119,648.557617 563.615906,640.531616 557.978943,634.016602 
	C557.978943,634.016602 558.033203,634.027893 557.876953,633.401672 
	C557.573059,633.101807 557.269104,632.802002 556.777832,631.905212 
	C550.102600,624.058289 542.524170,617.445801 532.185730,615.020142 
	C511.207031,610.097839 491.565613,612.939331 474.287354,626.371460 
	C457.757355,639.221985 447.906616,656.284302 444.136902,675.961792 
	C444.070831,670.852417 444.369232,665.706116 443.856689,660.641907 
	C443.003418,652.211548 442.087463,643.686096 436.221588,636.921143 
	C436.221588,636.921143 436.316620,636.843628 436.512787,636.184143 
	C436.040619,635.749756 435.568481,635.315308 435.064972,634.961670 
M197.003616,734.993530 
	C197.003616,734.993530 196.947037,735.013550 197.227844,735.580872 
	C197.812576,735.748413 198.397293,735.916016 198.992111,736.011475 
	C198.992111,736.011475 198.932785,736.053650 199.169510,736.707703 
	C213.153732,744.840088 228.334808,746.909485 244.241165,746.067688 
	C264.539368,744.993469 282.451416,738.196960 297.648315,724.651917 
	C308.004395,715.421448 315.338257,704.383484 316.515381,690.131592 
	C317.121094,682.797546 316.775665,675.580688 311.082428,669.905090 
	C311.082428,669.905090 311.171631,669.950867 311.281403,669.283447 
	C310.818176,668.810913 310.354950,668.338440 309.623627,667.276062 
	C303.864227,660.444397 296.350494,656.528870 287.606018,656.319763 
	C279.391724,656.123413 271.146606,657.382690 262.909027,657.906616 
	C259.614929,658.116028 258.566589,659.603333 258.448975,662.951477 
	C258.174042,670.775085 256.853790,678.449646 252.156876,685.059814 
	C246.723511,692.706299 238.526031,694.172424 230.904800,688.361511 
	C230.634567,688.168884 230.364349,687.976196 230.101669,687.943970 
	C230.101669,687.943970 230.258408,687.908691 230.222549,687.109497 
	C226.634003,678.385742 226.700745,669.338684 227.957336,660.220886 
	C229.976410,645.570557 234.670959,631.891663 243.399048,619.828003 
	C247.633759,613.974915 253.064346,610.250916 261.185852,612.731506 
	C265.553894,622.407043 261.960968,631.181274 257.929199,639.995178 
	C259.114624,640.960388 260.228088,641.867004 261.274597,643.489136 
	C271.725983,650.732300 283.253998,651.657532 295.521057,650.030334 
	C317.634186,647.096985 331.765686,629.378540 328.743591,607.272827 
	C327.834076,600.620239 326.330536,593.929138 320.302856,588.695862 
	C319.377899,587.370117 318.701874,585.728394 317.486725,584.770935 
	C310.675995,579.404602 303.735199,574.203308 297.729248,568.983826 
	C303.825317,568.228271 309.921204,567.471252 316.017487,566.717285 
	C342.223541,563.475952 368.392761,559.888123 394.646698,557.096802 
	C418.773254,554.531555 442.969696,552.520630 467.174011,550.814880 
	C498.676483,548.594666 530.200134,546.536011 561.746826,545.127258 
	C586.514221,544.021301 611.333435,543.484131 636.124268,543.625854 
	C677.736694,543.863953 719.348694,544.672424 760.953247,545.588135 
	C779.406494,545.994324 797.856262,547.008179 816.280151,548.178589 
	C837.510925,549.527344 858.722168,551.225159 879.921326,553.015625 
	C895.481689,554.329895 911.010742,556.018921 926.549866,557.578979 
	C932.951538,558.221741 939.343140,558.964600 945.739258,559.661926 
	C944.725769,558.241272 943.481079,557.534668 942.155884,557.315918 
	C913.355652,552.560608 884.635254,547.194519 855.714172,543.334167 
	C826.412476,539.423096 796.953491,536.480957 767.484070,534.094849 
	C739.151733,531.800842 710.735291,529.975281 682.324585,529.338867 
	C627.071838,528.101074 571.817627,528.734070 516.734680,534.039551 
	C490.443115,536.571899 464.121521,538.979187 437.938934,542.402344 
	C413.106567,545.649048 388.348358,549.665649 363.723694,554.238525 
	C341.089203,558.441895 318.676117,563.837219 295.301392,568.586731 
	C281.173157,564.584106 266.967041,562.158813 252.117737,563.910522 
	C225.984558,566.993347 204.035767,577.844238 187.812881,598.645142 
	C169.202454,622.507385 161.199875,649.731201 163.915115,680.113953 
	C165.982010,703.242065 176.088318,721.350891 195.871826,734.662781 
	C196.252167,734.792786 196.632507,734.922791 197.003616,734.993530 
M775.522583,577.202698 
	C775.010132,576.622192 774.497681,576.041626 773.812073,574.856384 
	C773.099792,574.164246 772.304810,573.538574 771.687500,572.770142 
	C759.756348,557.918335 731.281616,561.143188 720.204285,577.532166 
	C716.361328,583.218018 714.753235,589.543457 715.043335,596.423706 
	C715.337646,603.402832 718.483887,608.954712 723.863831,613.784851 
	C710.469299,618.331116 701.994690,626.377686 700.653931,640.422302 
	C713.030823,647.594788 713.577515,647.286865 710.556335,663.155884 
	C708.483337,674.044312 704.914551,684.639832 702.560425,695.484802 
	C699.216858,710.887695 700.083801,725.350708 714.259399,736.584473 
	C714.824890,736.774414 715.390381,736.964294 715.928162,737.074158 
	C715.928162,737.074158 715.859314,737.123596 716.039978,737.800842 
	C736.378906,751.302734 765.221680,738.716248 769.606079,714.570801 
	C770.260376,710.967407 768.421753,711.112000 766.175598,710.199707 
	C765.279175,709.481689 764.486206,708.509460 763.466492,708.094421 
	C760.698547,706.967957 757.834351,706.077698 754.936523,704.235413 
	C754.785461,699.640686 753.702454,694.841125 754.658508,690.489685 
	C757.499084,677.560913 761.272827,664.840576 764.426086,651.976074 
	C766.560547,643.267944 767.493713,634.561096 760.980713,627.015137 
	C760.980713,627.015137 761.031799,627.024719 760.878174,626.427979 
	C760.563232,626.168396 760.248230,625.908752 759.646118,625.109314 
	C758.118896,623.451660 756.591614,621.793945 755.778931,619.958496 
	C765.378906,616.445557 773.217102,610.733521 777.112488,601.021912 
	C780.267517,593.156189 781.394775,585.083862 775.168091,577.796875 
	C775.168091,577.796875 775.213989,577.928894 775.522583,577.202698 
M785.997253,737.000366 
	C785.997253,737.000366 785.936890,737.025330 786.227966,737.660583 
	C796.027344,743.950317 806.322754,744.517395 817.006226,740.273254 
	C825.960327,736.716187 831.457825,729.618347 836.532654,722.096619 
	C838.517151,728.438782 842.847412,733.003845 848.225220,737.647217 
	C851.495972,739.152893 854.626648,741.235107 858.060547,742.068970 
	C877.744995,746.848694 898.946289,730.856445 899.724060,710.664001 
	C899.770874,709.447937 897.611816,708.146851 896.627686,706.063171 
	C894.423950,704.976013 892.220154,703.888855 889.934265,702.002258 
	C889.799194,697.445007 888.911011,692.756470 889.678406,688.356628 
	C891.544922,677.655884 894.624268,667.161621 896.371399,656.446655 
	C897.888245,647.144043 897.795471,637.742310 891.124817,629.856262 
	C891.124817,629.856262 891.189941,629.939087 891.440796,629.208130 
	C890.957275,628.626648 890.473755,628.045227 889.818237,626.862183 
	C883.731750,619.736694 876.831787,613.934082 866.982849,613.056091 
	C848.561157,611.413818 834.750000,619.922729 823.394287,633.415344 
	C820.442261,630.328857 817.913269,627.484253 815.175842,624.856873 
	C802.496094,612.686707 780.591187,617.597473 774.118042,633.914551 
	C772.406982,638.227722 772.738770,641.358337 777.498657,643.154602 
	C782.155212,644.911743 784.604492,648.513672 784.868042,653.318848 
	C785.075623,657.104126 785.292053,661.101685 784.343750,664.698975 
	C781.010193,677.344360 777.089355,689.833435 773.554504,702.427734 
	C769.751526,715.977295 773.028687,727.332214 784.818420,736.546753 
	C785.214661,736.719421 785.610901,736.892151 785.997253,737.000366 
M380.170807,467.383698 
	C379.670197,472.531403 379.169586,477.679138 378.668945,482.826843 
	C378.976013,482.858551 379.283081,482.890289 379.590149,482.921997 
	C380.355927,477.924286 381.121735,472.926605 382.049103,467.178528 
	C388.555542,440.117432 401.797760,416.742737 421.608612,397.348511 
	C452.878723,366.736176 491.052032,351.135773 534.339722,348.124908 
	C561.672974,346.223785 588.538635,349.837982 614.056580,360.123138 
	C667.305054,381.585266 704.140930,418.088593 717.440491,475.450653 
	C719.916077,486.128052 720.857422,497.010773 719.782776,508.612427 
	C652.831360,502.616699 586.281982,503.473236 519.630615,508.817078 
	C477.110901,512.226135 341.621216,537.397095 324.716125,547.401489 
	C501.946198,515.540283 679.954468,510.018951 858.829041,530.936523 
	C819.753235,520.888062 779.921387,515.312378 740.161804,510.528442 
	C739.948425,509.720062 739.787781,509.398926 739.792603,509.080322 
	C739.812805,507.747986 739.863525,506.415314 739.937378,505.084686 
	C741.603455,475.066406 735.559998,446.666168 719.981079,420.954193 
	C686.847351,366.269196 636.900269,338.475616 574.191772,332.100006 
	C566.244080,331.291962 560.041138,329.542389 556.317627,321.320343 
	C552.295410,312.438629 541.208923,307.035278 532.289062,308.288361 
	C520.862793,309.893524 512.695496,315.949066 509.724823,327.263153 
	C507.849335,334.406097 503.932739,338.108398 496.986511,340.216827 
	C474.959930,346.902649 454.834747,357.426422 436.990936,372.037140 
	C406.788818,396.766907 387.046295,427.794250 380.170807,467.383698 
M730.969421,371.480682 
	C729.623657,373.169159 728.277832,374.857635 726.951843,376.521362 
	C725.049316,375.314728 723.987305,374.641174 723.355652,374.240509 
	C717.342041,380.266876 711.602478,386.018646 705.830627,391.802704 
	C711.305908,399.257233 716.973572,406.973785 722.979980,415.151459 
	C729.257629,408.766571 735.458679,402.514740 741.564514,396.171234 
	C742.234863,395.474823 742.943970,393.666504 742.644836,393.368652 
	C740.347168,391.081116 742.317810,389.894562 743.660217,388.535309 
	C746.467468,385.692810 749.134583,382.673279 752.208130,380.151764 
	C753.397949,379.175690 755.779358,378.634277 757.196777,379.121063 
	C765.483398,381.967102 773.877075,382.170898 782.250793,380.252228 
	C808.486084,374.240875 828.712830,352.436920 833.208618,325.654083 
	C837.202271,301.863281 821.507812,283.195953 797.435425,283.707611 
	C776.194275,284.159119 760.302979,294.940155 747.913940,311.359833 
	C738.317566,324.078278 733.210693,338.572754 736.937439,354.344574 
	C738.640503,361.551880 738.087341,366.223755 732.182983,370.277069 
	C731.913147,370.462311 731.707458,370.741180 730.969421,371.480682 
M319.087524,275.311218 
	C314.795502,278.350922 316.664795,281.076172 319.454193,283.856995 
	C332.908447,297.269836 346.363342,310.682343 359.754791,324.157776 
	C363.470642,327.896881 363.619995,332.083313 360.442474,335.152985 
	C357.441467,338.052124 353.473022,337.790466 349.880371,334.298462 
	C345.817810,330.349731 341.854706,326.298706 337.847809,322.292694 
	C327.123199,311.570404 316.436798,300.809509 305.653473,290.146606 
	C301.667480,286.205139 297.490051,285.918640 294.184479,289.021301 
	C290.787323,292.209961 291.055511,296.838623 295.033875,300.832092 
	C309.030334,314.881653 323.072388,328.885773 337.090057,342.914154 
	C342.600922,348.429199 343.390289,352.042084 339.916840,355.674957 
	C336.300934,359.456696 332.515320,358.686493 326.799103,352.974670 
	C314.067352,340.252808 301.393341,327.472137 288.538177,314.876343 
	C287.268585,313.632385 284.433807,312.519104 283.187897,313.123352 
	C281.900238,313.747894 280.953033,316.598755 281.094177,318.377502 
	C281.664215,325.562500 284.642487,331.955475 289.607269,337.085236 
	C300.265717,348.097809 310.954956,359.106262 322.131470,369.583130 
	C330.116913,377.068665 340.014954,379.657318 350.831940,377.004639 
	C354.952454,375.994141 358.890167,374.238159 363.126038,372.746246 
	C366.602081,376.280426 370.202057,379.940552 373.015381,382.800903 
	C373.015381,385.115295 372.353943,387.277039 373.118103,388.077118 
	C380.441254,395.744263 388.005219,403.181427 395.628235,410.812744 
	C401.685730,402.638184 407.372681,394.963654 412.868286,387.547363 
	C405.775726,380.478790 398.839722,373.566284 391.744812,366.495361 
	C390.991150,366.956451 389.920013,367.611725 389.402924,367.928070 
	C385.337250,364.132751 381.599945,360.644012 377.917664,357.206635 
	C387.440277,340.637238 383.053925,324.595032 374.439484,315.906555 
	C364.114014,305.492401 353.816071,295.047058 343.300262,284.827087 
	C336.864349,278.572296 328.956451,275.344696 319.087524,275.311218 
z"/>
<path fill="#BE1F2E" opacity="1.000000" stroke="none" 
	d="
M472.463867,865.989380 
	C447.624878,849.350281 441.779785,817.996155 458.857513,792.817261 
	C471.018402,774.887634 488.775635,764.863892 508.689850,758.167664 
	C526.276550,752.254028 544.500977,748.919067 563.007996,749.197571 
	C592.106750,749.635437 621.263733,750.172119 650.260986,752.414246 
	C690.338745,755.513062 729.718323,763.698364 769.148499,771.362183 
	C804.963928,778.323303 840.795776,785.494080 876.903259,790.554443 
	C900.688477,793.887817 924.963440,794.019165 949.044434,794.762939 
	C955.778625,794.970947 962.762085,792.771301 969.330139,790.714844 
	C973.742188,789.333313 975.630432,785.466675 973.104858,779.982544 
	C967.747253,773.784851 961.383972,776.057800 955.468872,776.499634 
	C946.589661,777.162842 937.747742,778.841736 928.877930,778.933716 
	C922.909485,778.995544 916.920227,777.063599 910.940308,776.023621 
	C910.940308,776.023621 910.998352,775.999084 910.859314,775.720947 
	C910.297485,775.291260 909.874756,775.139771 909.451965,774.988281 
	C887.837585,759.855652 889.606750,728.585144 908.814758,711.231995 
	C911.626526,708.691833 914.718628,706.461914 917.838989,703.961914 
	C903.997742,686.968933 904.195923,668.252747 912.615723,649.635254 
	C921.630493,629.702454 937.906250,617.896118 959.498535,614.132263 
	C974.208801,611.568115 982.380676,612.488708 997.878662,617.066711 
	C996.408447,614.839661 995.418518,613.340210 994.094788,611.228577 
	C987.009094,604.337158 979.250366,604.361328 971.075134,606.992676 
	C970.059570,605.991272 968.483337,605.162964 968.112732,603.962524 
	C962.722351,586.501831 974.592834,567.404175 992.764038,564.052917 
	C1006.969910,561.432922 1018.562561,565.923889 1027.969971,577.483948 
	C1028.439087,578.415161 1028.753296,578.710754 1029.067627,579.006348 
	C1029.067627,579.006348 1029.001831,578.995300 1028.976440,579.364380 
	C1034.692871,596.732361 1032.334106,612.468079 1019.958984,625.572266 
	C1015.172729,630.640442 1015.212646,634.329224 1018.678955,639.386292 
	C1019.681274,640.848694 1020.240723,642.728760 1020.602600,644.499146 
	C1026.835083,674.996887 1013.690674,705.204102 979.681763,714.759155 
	C965.959167,718.614624 951.892578,719.468994 937.858704,715.526306 
	C936.620544,715.178528 934.490356,715.246643 933.921265,715.994324 
	C933.251526,716.874329 933.456116,718.869812 933.979553,720.079590 
	C934.489746,721.258667 935.880920,722.056580 937.179565,723.269897 
	C944.831238,723.158142 952.188660,722.798218 960.038696,722.311035 
	C966.570496,721.414368 972.609741,720.644897 978.648987,719.875488 
	C990.865662,719.358032 1001.304077,722.720093 1008.631714,734.137939 
	C1013.584961,745.278564 1013.033630,756.516785 1011.545105,767.223694 
	C1010.247925,776.553589 1007.230286,786.177490 1002.697205,794.419922 
	C991.127075,815.457520 971.596497,824.323425 948.414612,824.798218 
	C932.500061,825.124084 916.517395,824.128113 900.624084,822.937012 
	C883.923279,821.685547 867.260315,819.752686 850.639343,817.654236 
	C829.742249,815.015930 808.914246,811.835327 788.038513,809.021667 
	C766.997803,806.185852 745.968933,803.210815 724.872620,800.854309 
	C704.267212,798.552734 683.611389,795.877502 662.926086,795.335327 
	C639.695740,794.726440 616.396362,796.060852 593.148376,797.051331 
	C577.004333,797.739197 561.048889,800.436401 545.872742,806.084167 
	C539.306213,808.527954 532.853455,812.115784 527.397217,816.491028 
	C520.697144,821.863770 521.090637,833.113953 527.084900,837.981445 
	C527.084900,837.981445 527.016113,837.993530 527.065674,838.219727 
	C527.367004,838.690369 527.618835,838.934875 527.870667,839.179382 
	C530.386414,840.367065 532.988342,841.404175 535.395264,842.781921 
	C538.194458,844.384094 540.822754,846.284668 543.731567,848.744751 
	C544.959961,857.779114 540.328552,863.002014 533.735596,866.596191 
	C521.649048,873.185303 508.430969,873.970581 495.127411,872.447327 
	C488.646606,871.705261 482.326141,869.562805 475.933075,868.054260 
	C475.933075,868.054260 475.994659,868.010742 475.921234,867.760132 
	C475.489929,867.391907 475.132080,867.274292 474.774200,867.156616 
	C474.774200,867.156616 474.861938,867.046997 474.723267,866.777039 
	C473.877655,866.334534 473.170776,866.161926 472.463867,865.989380 
M974.843262,646.747559 
	C970.725464,642.384216 965.170837,643.025574 961.273315,648.666687 
	C955.340088,657.254272 953.001404,667.041504 953.195496,677.316711 
	C953.276489,681.608887 953.401306,686.428345 958.672180,689.420593 
	C964.305664,691.357361 968.182800,690.210144 971.216675,684.854004 
	C976.407715,675.689575 978.307617,665.618469 977.746338,655.185425 
	C977.607117,652.597534 975.933899,650.092224 974.843262,646.747559 
z"/>
<path fill="#BE1F2E" opacity="1.000000" stroke="none" 
	d="
M261.341553,642.773621 
	C260.228088,641.867004 259.114624,640.960388 257.929199,639.995178 
	C261.960968,631.181274 265.553894,622.407043 260.895325,612.059265 
	C254.825729,606.007751 247.041504,607.022156 241.402039,614.494263 
	C227.930695,632.343445 222.307083,652.666016 224.320023,674.817932 
	C224.729492,679.324158 228.199371,683.552307 230.258423,687.908691 
	C230.258408,687.908691 230.101669,687.943970 230.158737,688.111877 
	C230.464294,688.495850 230.712784,688.711914 230.961273,688.927979 
	C238.526031,694.172424 246.723511,692.706299 252.156876,685.059814 
	C256.853790,678.449646 258.174042,670.775085 258.448975,662.951477 
	C258.566589,659.603333 259.614929,658.116028 262.909027,657.906616 
	C271.146606,657.382690 279.391724,656.123413 287.606018,656.319763 
	C296.350494,656.528870 303.864227,660.444397 309.806244,667.903198 
	C310.383118,669.003845 310.777374,669.477356 311.171631,669.950867 
	C311.171631,669.950867 311.082428,669.905090 311.053955,670.277222 
	C315.558563,685.471313 312.846252,699.175171 303.338745,711.066528 
	C281.545807,738.323792 252.330673,746.022400 219.018097,741.395447 
	C212.207077,740.449402 205.622009,737.876587 198.932785,736.053650 
	C198.932785,736.053650 198.992111,736.011475 198.884918,735.735962 
	C198.167496,735.311523 197.557266,735.162537 196.947037,735.013550 
	C196.947037,735.013550 197.003616,734.993530 196.882126,734.729126 
	C196.357147,734.355835 195.953674,734.246948 195.550186,734.138062 
	C176.088318,721.350891 165.982010,703.242065 163.915115,680.113953 
	C161.199875,649.731201 169.202454,622.507385 187.812881,598.645142 
	C204.035767,577.844238 225.984558,566.993347 252.117737,563.910522 
	C266.967041,562.158813 281.173157,564.584106 295.835846,568.711060 
	C296.370300,568.835388 296.838776,568.945740 296.838776,568.945740 
	C303.735199,574.203308 310.675995,579.404602 317.486725,584.770935 
	C318.701874,585.728394 319.377899,587.370117 320.620239,589.299438 
	C321.344269,590.985840 321.739014,592.073364 322.159302,593.150879 
	C329.935425,613.087280 324.106415,637.281860 299.756561,644.620667 
	C286.762115,648.537170 273.922699,648.044250 261.341553,642.773621 
z"/>
<path fill="#BE1F2E" opacity="1.000000" stroke="none" 
	d="
M657.762329,684.335999 
	C663.472168,690.685242 669.950806,690.929688 681.518494,684.278137 
	C683.364014,686.637634 685.503357,689.372803 687.821289,692.744202 
	C688.400635,693.900574 688.801392,694.420776 689.202148,694.940918 
	C689.202148,694.940918 689.068848,694.882629 689.129028,695.115234 
	C689.488281,695.556152 689.787354,695.764587 690.086426,695.973022 
	C690.086426,695.973022 690.012024,695.991638 689.980042,696.363647 
	C690.337708,698.164795 690.764099,699.585083 691.111572,701.024353 
	C695.496399,719.191406 687.300720,736.157410 668.428772,739.425842 
	C661.552429,740.616699 654.118530,738.587646 646.938965,738.027649 
	C646.938965,738.027649 646.996338,738.000305 646.859741,737.720337 
	C646.298706,737.289978 645.874146,737.139709 645.449646,736.989380 
	C634.200256,728.828796 629.613220,716.917175 627.173035,703.941589 
	C626.103394,698.253479 625.960693,692.393433 624.950378,686.690613 
	C624.584595,684.625854 622.915710,682.791931 621.503906,680.195190 
	C620.122375,673.470825 620.602173,667.893188 626.568420,663.903076 
	C630.549194,663.803589 634.136353,663.837341 637.711853,663.649475 
	C639.006836,663.581421 640.736450,663.391113 641.473938,662.555786 
	C644.691528,658.911133 646.291382,654.732849 644.130432,649.505371 
	C640.029785,644.966553 635.344116,645.075806 630.354248,650.085938 
	C619.737000,660.746399 615.995850,674.187500 616.217285,688.744751 
	C616.300659,694.223145 617.276611,700.015991 622.151123,703.940369 
	C622.151123,703.940369 622.066162,703.955566 622.109009,704.189453 
	C622.440552,704.626343 622.729309,704.829468 623.018066,705.032532 
	C623.018066,705.032532 622.971008,705.016235 622.963013,705.314575 
	C623.329407,706.072205 623.703796,706.531372 624.078186,706.990601 
	C624.078186,706.990601 624.009521,706.991577 623.966003,707.389099 
	C625.978455,716.134766 625.664124,724.070251 618.915344,730.340759 
	C613.027100,735.811646 606.017883,739.265381 597.809692,738.969055 
	C592.079041,738.762146 586.377014,737.765442 580.662170,737.121521 
	C569.339233,729.245178 564.458252,717.912048 566.754211,704.855225 
	C570.157837,685.498840 575.323669,666.457458 579.502625,647.230469 
	C582.274536,634.477173 585.572632,621.731689 586.917358,608.804016 
	C588.321045,595.309204 585.750549,596.964233 576.381104,590.137939 
	C576.850403,577.154114 588.078613,567.132690 599.761658,564.296753 
	C613.910217,560.862244 626.358093,565.532227 633.605225,577.110229 
	C639.838867,594.171326 633.646118,608.936462 627.023743,623.644165 
	C627.385986,623.838501 627.748230,624.032776 628.110413,624.227112 
	C630.096069,622.560913 632.081665,620.894714 634.415894,619.127075 
	C634.851624,618.661987 634.938721,618.298340 635.042236,617.968018 
	C635.058777,618.001343 635.007324,618.055115 635.007324,618.055115 
	C636.610840,617.568115 638.285583,617.242065 639.806946,616.569336 
	C655.944336,609.432312 673.039673,612.117004 683.924377,623.604370 
	C685.039795,624.781616 685.936829,626.165710 687.098267,628.126953 
	C693.279236,644.963257 688.951477,660.064880 674.743652,670.029297 
	C668.445251,674.446655 661.380798,677.771790 654.541931,681.662292 
	C654.848999,682.076050 655.154724,682.698792 655.644043,683.094666 
	C656.273071,683.603760 657.049438,683.930603 657.762329,684.335999 
M626.372559,625.445007 
	C626.372559,625.445007 626.553833,625.548584 626.553833,625.548584 
	C626.553833,625.548584 626.525635,625.325378 626.372559,625.445007 
z"/>
<path fill="#F79621" opacity="1.000000" stroke="none" 
	d="
M380.612000,466.711761 
	C387.046295,427.794250 406.788818,396.766907 436.990936,372.037140 
	C454.834747,357.426422 474.959930,346.902649 496.986511,340.216827 
	C503.932739,338.108398 507.849335,334.406097 509.724823,327.263153 
	C512.695496,315.949066 520.862793,309.893524 532.289062,308.288361 
	C541.208923,307.035278 552.295410,312.438629 556.317627,321.320343 
	C560.041138,329.542389 566.244080,331.291962 574.191772,332.100006 
	C636.900269,338.475616 686.847351,366.269196 719.981079,420.954193 
	C735.559998,446.666168 741.603455,475.066406 739.937378,505.084686 
	C739.863525,506.415314 739.812805,507.747986 739.792603,509.080322 
	C739.787781,509.398926 739.948425,509.720062 740.161804,510.528442 
	C779.921387,515.312378 819.753235,520.888062 858.829041,530.936523 
	C679.954468,510.018951 501.946198,515.540283 324.716125,547.401489 
	C341.621216,537.397095 477.110901,512.226135 519.630615,508.817078 
	C586.281982,503.473236 652.831360,502.616699 719.782776,508.612427 
	C720.857422,497.010773 719.916077,486.128052 717.440491,475.450653 
	C704.140930,418.088593 667.305054,381.585266 614.056580,360.123138 
	C588.538635,349.837982 561.672974,346.223785 534.339722,348.124908 
	C491.052032,351.135773 452.878723,366.736176 421.608612,397.348511 
	C401.797760,416.742737 388.555542,440.117432 381.706299,467.411316 
	C381.113007,467.333313 380.862488,467.022552 380.612000,466.711761 
z"/>
<path fill="#BE1F2E" opacity="1.000000" stroke="none" 
	d="
M847.861877,737.050537 
	C842.847412,733.003845 838.517151,728.438782 836.262939,721.432373 
	C835.609131,717.590637 835.225098,714.413147 834.709412,710.147278 
	C833.929932,712.620422 833.547119,714.026123 833.047852,715.389221 
	C828.575500,727.600220 820.375610,736.340576 807.426331,738.414124 
	C800.514526,739.520935 793.115845,737.586914 785.936890,737.025330 
	C785.936890,737.025330 785.997253,737.000366 785.861084,736.723267 
	C785.304016,736.291382 784.883118,736.136658 784.462158,735.981995 
	C773.028687,727.332214 769.751526,715.977295 773.554504,702.427734 
	C777.089355,689.833435 781.010193,677.344360 784.343750,664.698975 
	C785.292053,661.101685 785.075623,657.104126 784.868042,653.318848 
	C784.604492,648.513672 782.155212,644.911743 777.498657,643.154602 
	C772.738770,641.358337 772.406982,638.227722 774.118042,633.914551 
	C780.591187,617.597473 802.496094,612.686707 815.175842,624.856873 
	C817.913269,627.484253 820.442261,630.328857 823.394287,633.415344 
	C834.750000,619.922729 848.561157,611.413818 866.982849,613.056091 
	C876.831787,613.934082 883.731750,619.736694 889.898987,627.542847 
	C890.383118,628.795349 890.786560,629.367249 891.189941,629.939087 
	C891.189941,629.939087 891.124817,629.856262 891.073975,630.244446 
	C894.054321,641.243164 893.801941,651.839905 891.153381,662.499939 
	C889.080566,670.843018 887.025574,679.206543 885.453247,687.652344 
	C884.407532,693.269226 884.486450,698.967163 890.016357,702.801697 
	C892.220154,703.888855 894.423950,704.976013 896.416138,706.866699 
	C894.092957,723.729797 883.567871,736.116333 868.339600,738.428833 
	C861.735779,739.431702 854.700928,737.596558 847.861877,737.050537 
M828.238770,705.283752 
	C828.511841,705.495056 828.784912,705.706360 829.670227,706.264038 
	C831.309631,707.215027 832.949036,708.166016 834.097900,708.832458 
	C837.970032,694.889282 841.880493,681.287903 845.484070,667.605713 
	C847.011292,661.807007 849.223083,655.885315 845.981995,649.151733 
	C841.729248,644.713440 836.955933,645.279297 832.969299,651.130920 
	C824.835632,663.070068 820.948120,676.421631 822.356262,690.755859 
	C822.834045,695.619324 826.212158,700.197876 828.099487,704.935730 
	C828.099487,704.935730 828.100281,704.767822 828.238770,705.283752 
z"/>
<path fill="#BE1F2E" opacity="1.000000" stroke="none" 
	d="
M467.637848,735.101257 
	C449.765930,723.514160 442.934845,706.544739 443.658356,685.896667 
	C443.751099,683.250366 443.877838,680.605225 444.125885,677.453491 
	C444.262939,676.947388 444.296021,676.924683 444.296021,676.924683 
	C447.906616,656.284302 457.757355,639.221985 474.287354,626.371460 
	C491.565613,612.939331 511.207031,610.097839 532.185730,615.020142 
	C542.524170,617.445801 550.102600,624.058289 556.940125,632.532227 
	C557.412659,633.448730 557.722961,633.738342 558.033203,634.027893 
	C558.033203,634.027893 557.978943,634.016602 557.953491,634.376099 
	C559.926575,643.575867 563.172119,652.348755 563.655029,661.271118 
	C564.561707,678.021851 559.933899,693.695129 550.985779,708.110291 
	C535.625061,732.856079 509.444916,744.580505 480.921661,738.910522 
	C476.419250,738.015503 472.062134,736.389343 467.637848,735.101257 
M516.735168,649.348206 
	C513.572327,645.444885 509.644836,645.031799 505.745453,647.707397 
	C502.939575,649.632568 500.057434,651.975403 498.300476,654.808594 
	C490.939484,666.678894 487.516418,679.721802 489.236786,693.666809 
	C489.633759,696.884399 492.393707,699.810486 494.793762,703.190002 
	C501.160889,705.078003 506.390869,702.930542 510.671478,696.375122 
	C515.936401,688.312256 518.608521,679.324585 519.602966,669.807983 
	C520.313538,663.007446 520.720764,656.229675 516.735168,649.348206 
z"/>
<path fill="#BE1F2E" opacity="1.000000" stroke="none" 
	d="
M342.850037,734.054626 
	C326.950348,723.183289 320.039124,707.538391 320.304443,688.882141 
	C320.699310,661.114807 332.479156,638.848450 355.536285,623.258972 
	C372.330505,611.903931 391.112030,610.247314 410.378265,615.428345 
	C420.074005,618.035645 427.785339,624.050842 433.634094,633.151062 
	C434.347198,634.119751 434.748901,634.534058 435.150635,634.948364 
	C435.150635,634.948364 435.064972,634.961670 435.050598,635.258911 
	C435.463043,635.985352 435.889832,636.414490 436.316620,636.843628 
	C436.316620,636.843628 436.221588,636.921143 436.130188,637.256042 
	C436.706207,639.803894 437.513489,641.985474 438.019318,644.234741 
	C442.849091,665.710938 440.479431,686.190552 429.297058,705.376038 
	C412.373810,734.411194 384.853271,745.427124 353.868561,737.983704 
	C351.501801,737.415222 349.130676,736.864746 346.761597,736.305908 
	C346.761597,736.305908 346.814697,736.202271 346.765503,735.922546 
	C346.099640,735.465332 345.483032,735.287842 344.866425,735.110352 
	C344.866425,735.110352 344.932922,735.058105 344.816132,734.795349 
	C344.082916,734.373230 343.466461,734.213928 342.850037,734.054626 
M370.189087,702.313965 
	C370.344116,702.633240 370.595367,702.829102 371.670013,703.253113 
	C377.560089,704.870483 382.683258,703.531189 386.151764,697.853821 
	C389.631104,692.158752 392.778259,685.958130 394.489868,679.556396 
	C397.081055,669.865051 398.555481,659.800842 393.677887,649.408752 
	C389.396332,645.351990 385.812073,644.844116 381.352142,648.301208 
	C378.909241,650.194885 376.697510,652.589905 374.956512,655.149841 
	C368.316864,664.912476 365.537506,676.042542 365.346558,687.618103 
	C365.264832,692.571716 364.908447,698.436157 370.102020,701.965942 
	C370.102020,701.965942 370.070007,701.834351 370.189087,702.313965 
z"/>
<path fill="#BE1F2E" opacity="1.000000" stroke="none" 
	d="
M713.958923,736.027283 
	C700.083801,725.350708 699.216858,710.887695 702.560425,695.484802 
	C704.914551,684.639832 708.483337,674.044312 710.556335,663.155884 
	C713.577515,647.286865 713.030823,647.594788 700.653931,640.422302 
	C701.994690,626.377686 710.469299,618.331116 723.863831,613.784851 
	C718.483887,608.954712 715.337646,603.402832 715.043335,596.423706 
	C714.753235,589.543457 716.361328,583.218018 720.204285,577.532166 
	C731.281616,561.143188 759.756348,557.918335 771.687500,572.770142 
	C772.304810,573.538574 773.099792,574.164246 773.906067,575.539978 
	C774.404724,576.791992 774.809387,577.360474 775.213989,577.928894 
	C775.213989,577.928894 775.168091,577.796875 775.102234,578.207703 
	C777.960083,591.169861 774.222595,601.634277 764.482788,609.714111 
	C760.656006,612.888672 755.876526,614.915039 751.517944,617.471985 
	C751.734741,617.794495 751.857239,618.151428 752.106689,618.316956 
	C753.070618,618.956482 754.075073,619.535034 755.064392,620.136292 
	C756.591614,621.793945 758.118896,623.451660 759.872131,625.688416 
	C760.409363,626.519897 760.720581,626.772339 761.031799,627.024719 
	C761.031799,627.024719 760.980713,627.015137 760.936279,627.419006 
	C762.652466,635.556519 762.434509,643.170532 760.328247,650.880371 
	C756.842651,663.639099 753.549194,676.458313 750.566040,689.342712 
	C749.220764,695.153015 749.651733,700.941528 755.008362,705.093811 
	C757.834351,706.077698 760.698547,706.967957 763.466492,708.094421 
	C764.486206,708.509460 765.279175,709.481689 766.070984,710.996582 
	C759.777161,731.870361 749.718140,739.300293 728.561584,738.973755 
	C724.319031,738.908325 720.092957,737.768188 715.859314,737.123596 
	C715.859314,737.123596 715.928162,737.074158 715.828491,736.816040 
	C715.138916,736.381042 714.548889,736.204163 713.958923,736.027283 
z"/>
<path fill="#F7951E" opacity="1.000000" stroke="none" 
	d="
M731.220703,371.228577 
	C731.707458,370.741180 731.913147,370.462311 732.182983,370.277069 
	C738.087341,366.223755 738.640503,361.551880 736.937439,354.344574 
	C733.210693,338.572754 738.317566,324.078278 747.913940,311.359833 
	C760.302979,294.940155 776.194275,284.159119 797.435425,283.707611 
	C821.507812,283.195953 837.202271,301.863281 833.208618,325.654083 
	C828.712830,352.436920 808.486084,374.240875 782.250793,380.252228 
	C773.877075,382.170898 765.483398,381.967102 757.196777,379.121063 
	C755.779358,378.634277 753.397949,379.175690 752.208130,380.151764 
	C749.134583,382.673279 746.467468,385.692810 743.660217,388.535309 
	C742.317810,389.894562 740.347168,391.081116 742.644836,393.368652 
	C742.943970,393.666504 742.234863,395.474823 741.564514,396.171234 
	C735.458679,402.514740 729.257629,408.766571 722.979980,415.151459 
	C716.973572,406.973785 711.305908,399.257233 705.830627,391.802704 
	C711.602478,386.018646 717.342041,380.266876 723.355652,374.240509 
	C723.987305,374.641174 725.049316,375.314728 726.951843,376.521362 
	C728.277832,374.857635 729.623657,373.169159 731.220703,371.228577 
z"/>
<path fill="#BF2331" opacity="1.000000" stroke="none" 
	d="
M297.283997,568.964783 
	C296.838776,568.945740 296.370300,568.835388 296.267883,568.771423 
	C318.676117,563.837219 341.089203,558.441895 363.723694,554.238525 
	C388.348358,549.665649 413.106567,545.649048 437.938934,542.402344 
	C464.121521,538.979187 490.443115,536.571899 516.734680,534.039551 
	C571.817627,528.734070 627.071838,528.101074 682.324585,529.338867 
	C710.735291,529.975281 739.151733,531.800842 767.484070,534.094849 
	C796.953491,536.480957 826.412476,539.423096 855.714172,543.334167 
	C884.635254,547.194519 913.355652,552.560608 942.155884,557.315918 
	C943.481079,557.534668 944.725769,558.241272 945.739258,559.661926 
	C939.343140,558.964600 932.951538,558.221741 926.549866,557.578979 
	C911.010742,556.018921 895.481689,554.329895 879.921326,553.015625 
	C858.722168,551.225159 837.510925,549.527344 816.280151,548.178589 
	C797.856262,547.008179 779.406494,545.994324 760.953247,545.588135 
	C719.348694,544.672424 677.736694,543.863953 636.124268,543.625854 
	C611.333435,543.484131 586.514221,544.021301 561.746826,545.127258 
	C530.200134,546.536011 498.676483,548.594666 467.174011,550.814880 
	C442.969696,552.520630 418.773254,554.531555 394.646698,557.096802 
	C368.392761,559.888123 342.223541,563.475952 316.017487,566.717285 
	C309.921204,567.471252 303.825317,568.228271 297.283997,568.964783 
z"/>
<path fill="#F7951F" opacity="1.000000" stroke="none" 
	d="
M319.499023,275.213837 
	C328.956451,275.344696 336.864349,278.572296 343.300262,284.827087 
	C353.816071,295.047058 364.114014,305.492401 374.439484,315.906555 
	C383.053925,324.595032 387.440277,340.637238 377.917664,357.206635 
	C381.599945,360.644012 385.337250,364.132751 389.402924,367.928070 
	C389.920013,367.611725 390.991150,366.956451 391.744812,366.495361 
	C398.839722,373.566284 405.775726,380.478790 412.868286,387.547363 
	C407.372681,394.963654 401.685730,402.638184 395.628235,410.812744 
	C388.005219,403.181427 380.441254,395.744263 373.118103,388.077118 
	C372.353943,387.277039 373.015381,385.115295 373.015381,382.800903 
	C370.202057,379.940552 366.602081,376.280426 363.126038,372.746246 
	C358.890167,374.238159 354.952454,375.994141 350.831940,377.004639 
	C340.014954,379.657318 330.116913,377.068665 322.131470,369.583130 
	C310.954956,359.106262 300.265717,348.097809 289.607269,337.085236 
	C284.642487,331.955475 281.664215,325.562500 281.094177,318.377502 
	C280.953033,316.598755 281.900238,313.747894 283.187897,313.123352 
	C284.433807,312.519104 287.268585,313.632385 288.538177,314.876343 
	C301.393341,327.472137 314.067352,340.252808 326.799103,352.974670 
	C332.515320,358.686493 336.300934,359.456696 339.916840,355.674957 
	C343.390289,352.042084 342.600922,348.429199 337.090057,342.914154 
	C323.072388,328.885773 309.030334,314.881653 295.033875,300.832092 
	C291.055511,296.838623 290.787323,292.209961 294.184479,289.021301 
	C297.490051,285.918640 301.667480,286.205139 305.653473,290.146606 
	C316.436798,300.809509 327.123199,311.570404 337.847809,322.292694 
	C341.854706,326.298706 345.817810,330.349731 349.880371,334.298462 
	C353.473022,337.790466 357.441467,338.052124 360.442474,335.152985 
	C363.619995,332.083313 363.470642,327.896881 359.754791,324.157776 
	C346.363342,310.682343 332.908447,297.269836 319.454193,283.856995 
	C316.664795,281.076172 314.795502,278.350922 319.499023,275.213837 
z"/>
<path fill="#563D30" opacity="1.000000" stroke="none" 
	d="
M527.098999,837.553711 
	C521.090637,833.113953 520.697144,821.863770 527.397217,816.491028 
	C532.853455,812.115784 539.306213,808.527954 545.872742,806.084167 
	C561.048889,800.436401 577.004333,797.739197 593.148376,797.051331 
	C616.396362,796.060852 639.695740,794.726440 662.926086,795.335327 
	C683.611389,795.877502 704.267212,798.552734 724.872620,800.854309 
	C745.968933,803.210815 766.997803,806.185852 788.038513,809.021667 
	C808.914246,811.835327 829.742249,815.015930 850.639343,817.654236 
	C867.260315,819.752686 883.923279,821.685547 900.624084,822.937012 
	C916.517395,824.128113 932.500061,825.124084 948.414612,824.798218 
	C971.596497,824.323425 991.127075,815.457520 1002.697205,794.419922 
	C1007.230286,786.177490 1010.247925,776.553589 1011.545105,767.223694 
	C1013.033630,756.516785 1013.584961,745.278564 1008.828125,734.403076 
	C1013.831177,737.894836 1014.746155,743.685730 1015.328430,749.385376 
	C1017.442566,770.080994 1014.337585,789.531799 1000.646118,806.151550 
	C989.690918,819.449829 975.262512,826.203552 958.354980,827.921448 
	C935.184692,830.275452 912.169434,827.674744 889.199646,825.161865 
	C866.911194,822.723450 844.671326,819.819641 822.437622,816.909729 
	C802.187988,814.259399 781.999023,811.140625 761.740051,808.568848 
	C739.983643,805.807068 718.210999,803.080139 696.380981,801.022156 
	C679.842529,799.463074 663.193054,798.045166 646.610352,798.218567 
	C616.717285,798.531128 586.715210,799.060486 557.554199,806.996521 
	C551.040649,808.769104 544.548035,811.110535 538.549011,814.175232 
	C527.410950,819.865173 525.221680,824.921448 527.098999,837.553711 
z"/>
<path fill="#553C2F" opacity="1.000000" stroke="none" 
	d="
M936.885376,723.021790 
	C935.880920,722.056580 934.489746,721.258667 933.979553,720.079590 
	C933.456116,718.869812 933.251526,716.874329 933.921265,715.994324 
	C934.490356,715.246643 936.620544,715.178528 937.858704,715.526306 
	C951.892578,719.468994 965.959167,718.614624 979.681763,714.759155 
	C1013.690674,705.204102 1026.835083,674.996887 1020.602600,644.499146 
	C1020.240723,642.728760 1019.681274,640.848694 1018.678955,639.386292 
	C1015.212646,634.329224 1015.172729,630.640442 1019.958984,625.572266 
	C1032.334106,612.468079 1034.692871,596.732361 1028.988892,579.333435 
	C1036.454956,587.429749 1036.033691,597.503479 1034.406494,607.608643 
	C1032.641602,618.568176 1026.646606,627.252808 1018.154663,634.648926 
	C1023.239136,642.979492 1025.895874,651.875916 1025.841675,661.606873 
	C1025.686401,689.522705 1010.196594,710.202393 983.404602,718.018250 
	C982.022400,718.421448 980.673462,718.938660 978.979004,719.639160 
	C972.609741,720.644897 966.570496,721.414368 959.756714,722.214478 
	C951.781433,720.928528 944.580688,719.611816 937.099548,718.243835 
	C937.031067,719.772095 936.958191,721.396973 936.885376,723.021790 
z"/>
<path fill="#573E31" opacity="1.000000" stroke="none" 
	d="
M346.829529,736.638428 
	C349.130676,736.864746 351.501801,737.415222 353.868561,737.983704 
	C384.853271,745.427124 412.373810,734.411194 429.297058,705.376038 
	C440.479431,686.190552 442.849091,665.710938 438.019318,644.234741 
	C437.513489,641.985474 436.706207,639.803894 436.141083,637.195679 
	C442.087463,643.686096 443.003418,652.211548 443.856689,660.641907 
	C444.369232,665.706116 444.070831,670.852417 444.216461,676.443237 
	C444.296021,676.924683 444.262939,676.947388 444.268311,676.932373 
	C443.502075,679.935852 442.748810,682.959167 441.956024,685.972046 
	C435.780029,709.443909 423.417542,728.448425 400.684326,738.500916 
	C382.882721,746.372620 364.566010,746.580261 346.829529,736.638428 
z"/>
<path fill="#563C30" opacity="1.000000" stroke="none" 
	d="
M467.836853,735.399231 
	C472.062134,736.389343 476.419250,738.015503 480.921661,738.910522 
	C509.444916,744.580505 535.625061,732.856079 550.985779,708.110291 
	C559.933899,693.695129 564.561707,678.021851 563.655029,661.271118 
	C563.172119,652.348755 559.926575,643.575867 557.957642,634.348633 
	C563.615906,640.531616 565.909119,648.557617 566.741821,656.797180 
	C569.533752,684.421448 561.316833,708.250122 541.003052,727.541321 
	C521.803284,745.774658 489.519104,749.345642 467.836853,735.399231 
z"/>
<path fill="#563E31" opacity="1.000000" stroke="none" 
	d="
M199.051147,736.380676 
	C205.622009,737.876587 212.207077,740.449402 219.018097,741.395447 
	C252.330673,746.022400 281.545807,738.323792 303.338745,711.066528 
	C312.846252,699.175171 315.558563,685.471313 311.087524,670.239990 
	C316.775665,675.580688 317.121094,682.797546 316.515381,690.131592 
	C315.338257,704.383484 308.004395,715.421448 297.648315,724.651917 
	C282.451416,738.196960 264.539368,744.993469 244.241165,746.067688 
	C228.334808,746.909485 213.153732,744.840088 199.051147,736.380676 
z"/>
<path fill="#583E32" opacity="1.000000" stroke="none" 
	d="
M261.308075,643.131348 
	C273.922699,648.044250 286.762115,648.537170 299.756561,644.620667 
	C324.106415,637.281860 329.935425,613.087280 322.159302,593.150879 
	C321.739014,592.073364 321.344269,590.985840 320.867218,589.533752 
	C326.330536,593.929138 327.834076,600.620239 328.743591,607.272827 
	C331.765686,629.378540 317.634186,647.096985 295.521057,650.030334 
	C283.253998,651.657532 271.725983,650.732300 261.308075,643.131348 
z"/>
<path fill="#563C30" opacity="1.000000" stroke="none" 
	d="
M230.240479,687.509094 
	C228.199371,683.552307 224.729492,679.324158 224.320023,674.817932 
	C222.307083,652.666016 227.930695,632.343445 241.402039,614.494263 
	C247.041504,607.022156 254.825729,606.007751 260.718262,611.711670 
	C253.064346,610.250916 247.633759,613.974915 243.399048,619.828003 
	C234.670959,631.891663 229.976410,645.570557 227.957336,660.220886 
	C226.700745,669.338684 226.634003,678.385742 230.240479,687.509094 
z"/>
<path fill="#573E31" opacity="1.000000" stroke="none" 
	d="
M476.052521,868.382080 
	C482.326141,869.562805 488.646606,871.705261 495.127411,872.447327 
	C508.430969,873.970581 521.649048,873.185303 533.735596,866.596191 
	C540.328552,863.002014 544.959961,857.779114 543.955811,848.965759 
	C548.649231,853.158447 549.046204,858.058228 544.875793,863.509338 
	C539.135742,871.012085 530.849426,873.771851 521.984863,875.257507 
	C506.027496,877.931946 490.550507,877.134827 476.052521,868.382080 
z"/>
<path fill="#553C2F" opacity="1.000000" stroke="none" 
	d="
M658.132202,684.174561 
	C657.049438,683.930603 656.273071,683.603760 655.644043,683.094666 
	C655.154724,682.698792 654.848999,682.076050 654.541931,681.662292 
	C661.380798,677.771790 668.445251,674.446655 674.743652,670.029297 
	C688.951477,660.064880 693.279236,644.963257 687.268677,628.438965 
	C694.782776,635.545410 694.419678,644.719788 692.242004,653.879517 
	C689.427734,665.716980 680.780273,672.933960 670.666443,678.537109 
	C666.790100,680.684631 662.567078,682.206238 658.132202,684.174561 
z"/>
<path fill="#583E32" opacity="1.000000" stroke="none" 
	d="
M647.082397,738.346130 
	C654.118530,738.587646 661.552429,740.616699 668.428772,739.425842 
	C687.300720,736.157410 695.496399,719.191406 691.111572,701.024353 
	C690.764099,699.585083 690.337708,698.164795 690.001953,696.332214 
	C703.314514,711.665894 693.922119,738.225403 673.425293,742.909180 
	C664.130493,745.033203 655.306458,744.106567 647.082397,738.346130 
z"/>
<path fill="#563C30" opacity="1.000000" stroke="none" 
	d="
M754.972412,704.664612 
	C749.651733,700.941528 749.220764,695.153015 750.566040,689.342712 
	C753.549194,676.458313 756.842651,663.639099 760.328247,650.880371 
	C762.434509,643.170532 762.652466,635.556519 760.940247,627.393311 
	C767.493713,634.561096 766.560547,643.267944 764.426086,651.976074 
	C761.272827,664.840576 757.499084,677.560913 754.658508,690.489685 
	C753.702454,694.841125 754.785461,699.640686 754.972412,704.664612 
z"/>
<path fill="#583E32" opacity="1.000000" stroke="none" 
	d="
M848.043579,737.348877 
	C854.700928,737.596558 861.735779,739.431702 868.339600,738.428833 
	C883.567871,736.116333 894.092957,723.729797 896.341919,707.277771 
	C897.611816,708.146851 899.770874,709.447937 899.724060,710.664001 
	C898.946289,730.856445 877.744995,746.848694 858.060547,742.068970 
	C854.626648,741.235107 851.495972,739.152893 848.043579,737.348877 
z"/>
<path fill="#583F33" opacity="1.000000" stroke="none" 
	d="
M715.949646,737.462219 
	C720.092957,737.768188 724.319031,738.908325 728.561584,738.973755 
	C749.718140,739.300293 759.777161,731.870361 766.054138,711.429810 
	C768.421753,711.112000 770.260376,710.967407 769.606079,714.570801 
	C765.221680,738.716248 736.378906,751.302734 715.949646,737.462219 
z"/>
<path fill="#583E32" opacity="1.000000" stroke="none" 
	d="
M889.975342,702.401978 
	C884.486450,698.967163 884.407532,693.269226 885.453247,687.652344 
	C887.025574,679.206543 889.080566,670.843018 891.153381,662.499939 
	C893.801941,651.839905 894.054321,641.243164 891.121521,630.221741 
	C897.795471,637.742310 897.888245,647.144043 896.371399,656.446655 
	C894.624268,667.161621 891.544922,677.655884 889.678406,688.356628 
	C888.911011,692.756470 889.799194,697.445007 889.975342,702.401978 
z"/>
<path fill="#583E31" opacity="1.000000" stroke="none" 
	d="
M580.849365,737.427368 
	C586.377014,737.765442 592.079041,738.762146 597.809692,738.969055 
	C606.017883,739.265381 613.027100,735.811646 618.915344,730.340759 
	C625.664124,724.070251 625.978455,716.134766 623.982910,707.359253 
	C630.675842,714.724487 630.125793,725.858093 622.735596,733.404846 
	C612.155762,744.208374 593.785645,746.115356 580.849365,737.427368 
z"/>
<path fill="#583E31" opacity="1.000000" stroke="none" 
	d="
M622.188232,703.536377 
	C617.276611,700.015991 616.300659,694.223145 616.217285,688.744751 
	C615.995850,674.187500 619.737000,660.746399 630.354248,650.085938 
	C635.344116,645.075806 640.029785,644.966553 643.696533,649.531494 
	C640.707031,650.617004 637.323242,650.537659 635.589478,652.189819 
	C631.986450,655.623291 629.258057,659.974670 626.170166,663.948730 
	C620.602173,667.893188 620.122375,673.470825 621.318970,679.799683 
	C618.321228,687.863098 619.638123,695.518433 622.188232,703.536377 
z"/>
<path fill="#563C30" opacity="1.000000" stroke="none" 
	d="
M786.082397,737.342957 
	C793.115845,737.586914 800.514526,739.520935 807.426331,738.414124 
	C820.375610,736.340576 828.575500,727.600220 833.047852,715.389221 
	C833.547119,714.026123 833.929932,712.620422 834.709412,710.147278 
	C835.225098,714.413147 835.609131,717.590637 835.999695,721.169189 
	C831.457825,729.618347 825.960327,736.716187 817.006226,740.273254 
	C806.322754,744.517395 796.027344,743.950317 786.082397,737.342957 
z"/>
<path fill="#553C2F" opacity="1.000000" stroke="none" 
	d="
M755.421631,620.047363 
	C754.075073,619.535034 753.070618,618.956482 752.106689,618.316956 
	C751.857239,618.151428 751.734741,617.794495 751.517944,617.471985 
	C755.876526,614.915039 760.656006,612.888672 764.482788,609.714111 
	C774.222595,601.634277 777.960083,591.169861 775.170166,578.191162 
	C781.394775,585.083862 780.267517,593.156189 777.112488,601.021912 
	C773.217102,610.733521 765.378906,616.445557 755.421631,620.047363 
z"/>
<path fill="#573E31" opacity="1.000000" stroke="none" 
	d="
M911.081238,776.341064 
	C916.920227,777.063599 922.909485,778.995544 928.877930,778.933716 
	C937.747742,778.841736 946.589661,777.162842 955.468872,776.499634 
	C961.383972,776.057800 967.747253,773.784851 972.883057,779.650513 
	C963.130066,777.687805 953.762390,781.520447 944.155518,782.495056 
	C932.585571,783.668823 921.339050,783.473389 911.081238,776.341064 
z"/>
<path fill="#583E31" opacity="1.000000" stroke="none" 
	d="
M634.067261,619.228516 
	C632.081665,620.894714 630.096069,622.560913 628.110413,624.227112 
	C627.748230,624.032776 627.385986,623.838501 627.023743,623.644165 
	C633.646118,608.936462 639.838867,594.171326 633.780273,577.385254 
	C638.804749,580.843628 640.138794,586.791199 639.680298,592.259766 
	C638.974609,600.676208 636.581299,608.951111 634.955688,617.670593 
	C635.007324,618.055115 635.058777,618.001343 634.748291,618.043701 
	C634.314331,618.466797 634.190796,618.847656 634.067261,619.228516 
z"/>
<path fill="#553C2F" opacity="1.000000" stroke="none" 
	d="
M971.195618,607.364380 
	C979.250366,604.361328 987.009094,604.337158 993.894348,610.961792 
	C988.262512,609.044739 982.412720,608.126709 976.272644,609.760925 
	C974.321594,610.280212 971.929626,610.927002 971.195618,607.364380 
z"/>
<path fill="#F7B361" opacity="1.000000" stroke="none" 
	d="
M380.391388,467.047729 
	C380.862488,467.022552 381.113007,467.333313 381.625519,467.786499 
	C381.121735,472.926605 380.355927,477.924286 379.590149,482.921997 
	C379.283081,482.890289 378.976013,482.858551 378.668945,482.826843 
	C379.169586,477.679138 379.670197,472.531403 380.391388,467.047729 
z"/>
<path fill="#573E31" opacity="1.000000" stroke="none" 
	d="
M344.950623,735.445251 
	C345.483032,735.287842 346.099640,735.465332 346.784790,735.977478 
	C346.247162,736.134766 345.641022,735.957458 344.950623,735.445251 
z"/>
<path fill="#563E31" opacity="1.000000" stroke="none" 
	d="
M197.087433,735.297241 
	C197.557266,735.162537 198.167496,735.311523 198.879883,735.771973 
	C198.397293,735.916016 197.812576,735.748413 197.087433,735.297241 
z"/>
<path fill="#573E31" opacity="1.000000" stroke="none" 
	d="
M343.011292,734.340393 
	C343.466461,734.213928 344.082916,734.373230 344.834198,734.833557 
	C344.370239,734.965088 343.771393,734.795654 343.011292,734.340393 
z"/>
<path fill="#553C2F" opacity="1.000000" stroke="none" 
	d="
M775.368286,577.565796 
	C774.809387,577.360474 774.404724,576.791992 773.992676,575.842346 
	C774.497681,576.041626 775.010132,576.622192 775.368286,577.565796 
z"/>
<path fill="#573E31" opacity="1.000000" stroke="none" 
	d="
M435.188416,634.611938 
	C434.748901,634.534058 434.347198,634.119751 433.855255,633.403198 
	C434.252106,633.492432 434.739166,633.884033 435.188416,634.611938 
z"/>
<path fill="#583F33" opacity="1.000000" stroke="none" 
	d="
M714.109131,736.305908 
	C714.548889,736.204163 715.138916,736.381042 715.842407,736.856079 
	C715.390381,736.964294 714.824890,736.774414 714.109131,736.305908 
z"/>
<path fill="#583E31" opacity="1.000000" stroke="none" 
	d="
M624.078247,706.682678 
	C623.703796,706.531372 623.329407,706.072205 622.967285,705.290039 
	C623.345764,705.436340 623.712036,705.905579 624.078247,706.682678 
z"/>
<path fill="#583E32" opacity="1.000000" stroke="none" 
	d="
M689.257568,694.592163 
	C688.801392,694.420776 688.400635,693.900574 687.966187,693.025024 
	C688.392761,693.194214 688.852844,693.718872 689.257568,694.592163 
z"/>
<path fill="#563E31" opacity="1.000000" stroke="none" 
	d="
M311.226501,669.617188 
	C310.777374,669.477356 310.383118,669.003845 309.940308,668.198120 
	C310.354950,668.338440 310.818176,668.810913 311.226501,669.617188 
z"/>
<path fill="#573E31" opacity="1.000000" stroke="none" 
	d="
M472.690338,866.291870 
	C473.170776,866.161926 473.877655,866.334534 474.774963,866.824585 
	C474.282501,866.959473 473.599640,866.776855 472.690338,866.291870 
z"/>
<path fill="#583E32" opacity="1.000000" stroke="none" 
	d="
M891.315369,629.573608 
	C890.786560,629.367249 890.383118,628.795349 889.984985,627.843628 
	C890.473755,628.045227 890.957275,628.626648 891.315369,629.573608 
z"/>
<path fill="#573E31" opacity="1.000000" stroke="none" 
	d="
M436.414703,636.513916 
	C435.889832,636.414490 435.463043,635.985352 435.066284,635.218506 
	C435.568481,635.315308 436.040619,635.749756 436.414703,636.513916 
z"/>
<path fill="#563C30" opacity="1.000000" stroke="none" 
	d="
M784.640259,736.264404 
	C784.883118,736.136658 785.304016,736.291382 785.866089,736.755493 
	C785.610901,736.892151 785.214661,736.719421 784.640259,736.264404 
z"/>
<path fill="#583E32" opacity="1.000000" stroke="none" 
	d="
M645.631226,737.269958 
	C645.874146,737.139709 646.298706,737.289978 646.864075,737.751831 
	C646.607544,737.892395 646.210144,737.721497 645.631226,737.269958 
z"/>
<path fill="#573E31" opacity="1.000000" stroke="none" 
	d="
M909.636597,775.264893 
	C909.874756,775.139771 910.297485,775.291260 910.864136,775.752014 
	C910.612366,775.888062 910.216858,775.714783 909.636597,775.264893 
z"/>
<path fill="#573E31" opacity="1.000000" stroke="none" 
	d="
M474.779633,867.475464 
	C475.132080,867.274292 475.489929,867.391907 475.910828,867.796448 
	C475.577576,867.987000 475.181305,867.890686 474.779633,867.475464 
z"/>
<path fill="#563D30" opacity="1.000000" stroke="none" 
	d="
M527.864624,838.886597 
	C527.618835,838.934875 527.367004,838.690369 527.071167,838.185242 
	C527.304321,838.147705 527.581482,838.370789 527.864624,838.886597 
z"/>
<path fill="#563E31" opacity="1.000000" stroke="none" 
	d="
M195.710999,734.400391 
	C195.953674,734.246948 196.357147,734.355835 196.886734,734.758789 
	C196.632507,734.922791 196.252167,734.792786 195.710999,734.400391 
z"/>
<path fill="#583E31" opacity="1.000000" stroke="none" 
	d="
M622.978882,704.730408 
	C622.729309,704.829468 622.440552,704.626343 622.111511,704.146362 
	C622.360718,704.055664 622.650208,704.241943 622.978882,704.730408 
z"/>
<path fill="#583E32" opacity="1.000000" stroke="none" 
	d="
M690.101196,695.657715 
	C689.787354,695.764587 689.488281,695.556152 689.169495,695.054810 
	C689.471802,694.955383 689.793823,695.148926 690.101196,695.657715 
z"/>
<path fill="#563C30" opacity="1.000000" stroke="none" 
	d="
M230.933044,688.644775 
	C230.712784,688.711914 230.464294,688.495850 230.154968,688.031616 
	C230.364349,687.976196 230.634567,688.168884 230.933044,688.644775 
z"/>
<path fill="#553C2F" opacity="1.000000" stroke="none" 
	d="
M1029.007812,578.678040 
	C1028.753296,578.710754 1028.439087,578.415161 1028.055420,577.785339 
	C1028.306641,577.750671 1028.627441,578.050232 1029.007812,578.678040 
z"/>
<path fill="#563C30" opacity="1.000000" stroke="none" 
	d="
M557.955078,633.714783 
	C557.722961,633.738342 557.412659,633.448730 557.033813,632.830688 
	C557.269104,632.802002 557.573059,633.101807 557.955078,633.714783 
z"/>
<path fill="#563C30" opacity="1.000000" stroke="none" 
	d="
M760.954956,626.726318 
	C760.720581,626.772339 760.409363,626.519897 760.015747,625.958374 
	C760.248230,625.908752 760.563232,626.168396 760.954956,626.726318 
z"/>
<path fill="#F4F4F4" opacity="1.000000" stroke="none" 
	d="
M974.965820,647.548950 
	C975.933899,650.092224 977.607117,652.597534 977.746338,655.185425 
	C978.307617,665.618469 976.407715,675.689575 971.216675,684.854004 
	C968.182800,690.210144 964.305664,691.357361 958.339355,688.806396 
	C955.229858,675.796997 957.504883,664.234436 963.898743,653.415588 
	C966.343079,649.279663 969.812927,646.740845 974.965820,647.548950 
z"/>
<path fill="#553C2F" opacity="1.000000" stroke="none" 
	d="
M974.904541,647.148254 
	C969.812927,646.740845 966.343079,649.279663 963.898743,653.415588 
	C957.504883,664.234436 955.229858,675.796997 958.049438,688.619019 
	C953.401306,686.428345 953.276489,681.608887 953.195496,677.316711 
	C953.001404,667.041504 955.340088,657.254272 961.273315,648.666687 
	C965.170837,643.025574 970.725464,642.384216 974.904541,647.148254 
z"/>
<path fill="#F1ECEC" opacity="1.000000" stroke="none" 
	d="
M937.179565,723.269897 
	C936.958191,721.396973 937.031067,719.772095 937.099548,718.243835 
	C944.580688,719.611816 951.781433,720.928528 959.264160,722.341797 
	C952.188660,722.798218 944.831238,723.158142 937.179565,723.269897 
z"/>
<path fill="#F4F4F4" opacity="1.000000" stroke="none" 
	d="
M626.568420,663.903076 
	C629.258057,659.974670 631.986450,655.623291 635.589478,652.189819 
	C637.323242,650.537659 640.707031,650.617004 643.777466,649.886108 
	C646.291382,654.732849 644.691528,658.911133 641.473938,662.555786 
	C640.736450,663.391113 639.006836,663.581421 637.711853,663.649475 
	C634.136353,663.837341 630.549194,663.803589 626.568420,663.903076 
z"/>
<path fill="#583E31" opacity="1.000000" stroke="none" 
	d="
M626.449097,625.385193 
	C626.525635,625.325378 626.553833,625.548584 626.553833,625.548584 
	C626.553833,625.548584 626.372559,625.445007 626.449097,625.385193 
z"/>
<path fill="#F5F5F5" opacity="1.000000" stroke="none" 
	d="
M634.415894,619.127075 
	C634.190796,618.847656 634.314331,618.466797 634.731812,618.010315 
	C634.938721,618.298340 634.851624,618.661987 634.415894,619.127075 
z"/>
<path fill="#F4F4F4" opacity="1.000000" stroke="none" 
	d="
M846.166260,649.845642 
	C849.223083,655.885315 847.011292,661.807007 845.484070,667.605713 
	C841.880493,681.287903 837.970032,694.889282 834.097900,708.832458 
	C832.949036,708.166016 831.309631,707.215027 829.316406,705.805054 
	C828.675171,705.153381 828.387695,704.960632 828.100281,704.767822 
	C828.100281,704.767822 828.099487,704.935730 828.158569,704.517639 
	C822.694214,686.410645 826.631531,670.218323 836.161804,654.995483 
	C838.383606,651.446594 841.666077,649.295898 846.166260,649.845642 
z"/>
<path fill="#583E31" opacity="1.000000" stroke="none" 
	d="
M846.074097,649.498657 
	C841.666077,649.295898 838.383606,651.446594 836.161804,654.995483 
	C826.631531,670.218323 822.694214,686.410645 828.241272,704.503052 
	C826.212158,700.197876 822.834045,695.619324 822.356262,690.755859 
	C820.948120,676.421631 824.835632,663.070068 832.969299,651.130920 
	C836.955933,645.279297 841.729248,644.713440 846.074097,649.498657 
z"/>
<path fill="#583E31" opacity="1.000000" stroke="none" 
	d="
M828.169556,705.025757 
	C828.387695,704.960632 828.675171,705.153381 829.010315,705.631897 
	C828.784912,705.706360 828.511841,705.495056 828.169556,705.025757 
z"/>
<path fill="#F5F5F5" opacity="1.000000" stroke="none" 
	d="
M516.997986,650.004517 
	C520.720764,656.229675 520.313538,663.007446 519.602966,669.807983 
	C518.608521,679.324585 515.936401,688.312256 510.671478,696.375122 
	C506.390869,702.930542 501.160889,705.078003 494.390198,702.630493 
	C489.698700,684.693848 493.973328,669.138916 504.285553,655.005371 
	C507.330017,650.832703 511.795044,649.220093 516.997986,650.004517 
z"/>
<path fill="#563D30" opacity="1.000000" stroke="none" 
	d="
M516.866577,649.676392 
	C511.795044,649.220093 507.330017,650.832703 504.285553,655.005371 
	C493.973328,669.138916 489.698700,684.693848 494.026428,702.470825 
	C492.393707,699.810486 489.633759,696.884399 489.236786,693.666809 
	C487.516418,679.721802 490.939484,666.678894 498.300476,654.808594 
	C500.057434,651.975403 502.939575,649.632568 505.745453,647.707397 
	C509.644836,645.031799 513.572327,645.444885 516.866577,649.676392 
z"/>
<path fill="#F5F4F4" opacity="1.000000" stroke="none" 
	d="
M393.905670,650.071533 
	C398.555481,659.800842 397.081055,669.865051 394.489868,679.556396 
	C392.778259,685.958130 389.631104,692.158752 386.151764,697.853821 
	C382.683258,703.531189 377.560089,704.870483 371.277008,702.797852 
	C370.612671,702.173218 370.341339,702.003784 370.070007,701.834351 
	C370.070007,701.834351 370.102020,701.965942 370.183075,701.507507 
	C366.808746,685.837036 370.553223,671.909241 378.154846,658.819458 
	C381.560852,652.954407 386.301208,648.740540 393.905670,650.071533 
z"/>
<path fill="#563C30" opacity="1.000000" stroke="none" 
	d="
M393.791779,649.740112 
	C386.301208,648.740540 381.560852,652.954407 378.154846,658.819458 
	C370.553223,671.909241 366.808746,685.837036 370.245789,701.481934 
	C364.908447,698.436157 365.264832,692.571716 365.346558,687.618103 
	C365.537506,676.042542 368.316864,664.912476 374.956512,655.149841 
	C376.697510,652.589905 378.909241,650.194885 381.352142,648.301208 
	C385.812073,644.844116 389.396332,645.351990 393.791779,649.740112 
z"/>
<path fill="#563C30" opacity="1.000000" stroke="none" 
	d="
M370.129547,702.074158 
	C370.341339,702.003784 370.612671,702.173218 370.913422,702.622070 
	C370.595367,702.829102 370.344116,702.633240 370.129547,702.074158 
z"/>
</svg>