<?xml version="1.0" standalone="no"?>
<!DOCTYPE svg PUBLIC "-//W3C//DTD SVG 20010904//EN"
 "http://www.w3.org/TR/2001/REC-SVG-20010904/DTD/svg10.dtd">
<svg version="1.0" xmlns="http://www.w3.org/2000/svg"
 width="3235.000000pt" height="2744.000000pt" viewBox="0 0 3235.000000 2744.000000"
 preserveAspectRatio="xMidYMid meet">
<metadata>
Created by potrace 1.16, written by Peter Selinger 2001-2019
</metadata>
<g transform="translate(0.000000,2744.000000) scale(0.100000,-0.100000)"
fill="#000000" stroke="none">
<path d="M25895 26133 c-445 -58 -949 -345 -1326 -756 -419 -456 -762 -1087
-1022 -1882 -239 -727 -398 -1609 -457 -2525 -28 -445 -33 -571 -39 -1039 l-6
-505 -30 -8 c-36 -9 -73 -43 -113 -100 -37 -55 -169 -302 -312 -588 -62 -124
-115 -227 -116 -229 -2 -2 -26 -8 -54 -12 -58 -9 -149 -48 -196 -84 -46 -35
-79 -98 -470 -912 -54 -111 -54 -111 -54 -209 l0 -98 -212 -375 c-283 -502
-263 -473 -340 -508 -143 -64 -273 -187 -343 -324 -54 -106 -66 -165 -72 -354
-5 -158 -7 -173 -30 -215 -14 -25 -111 -198 -215 -385 -196 -351 -296 -523
-327 -564 l-18 -23 -184 60 c-775 255 -1707 455 -2599 556 -637 73 -905 86
-1745 87 -629 0 -746 -3 -1205 -37 -908 -66 -1921 -243 -2740 -479 -417 -120
-900 -299 -1164 -432 -37 -19 -74 -32 -82 -29 -27 10 -110 153 -137 233 -41
124 -57 239 -57 404 0 160 4 198 56 518 60 371 63 534 13 676 -61 173 -235
317 -464 381 -72 20 -121 27 -245 31 -239 8 -385 -24 -640 -142 -65 -30 -123
-55 -128 -55 -5 0 -12 8 -15 18 -3 9 -39 109 -82 222 -70 189 -143 388 -280
760 -30 80 -189 512 -353 960 -360 976 -402 1094 -402 1114 0 18 72 97 335
366 481 492 595 634 690 865 56 134 77 239 82 415 8 255 -42 510 -175 880
-261 729 -1157 3159 -1231 3339 -47 115 -112 167 -251 202 -86 22 -531 18
-680 -5 -787 -122 -1838 -491 -2560 -899 -489 -276 -765 -540 -785 -752 -7
-72 -50 51 434 -1260 479 -1296 452 -1223 591 -1605 210 -577 227 -622 280
-750 193 -463 409 -739 690 -884 108 -55 199 -89 326 -121 150 -37 260 -51
664 -85 201 -16 412 -34 470 -40 58 -5 110 -10 116 -10 15 0 36 -51 184 -455
70 -192 177 -483 238 -645 107 -285 163 -438 477 -1295 319 -868 347 -950 349
-994 l1 -44 -120 -105 c-219 -192 -548 -462 -700 -577 -271 -204 -699 -483
-775 -505 l-28 -8 -80 191 c-44 106 -105 253 -135 327 -31 74 -104 252 -162
395 -59 143 -244 593 -410 1000 -167 407 -430 1048 -585 1425 -155 377 -342
834 -416 1015 -189 462 -560 1367 -724 1765 -393 955 -481 1172 -477 1176 2 2
22 -38 44 -89 23 -50 121 -270 218 -487 162 -362 325 -727 853 -1910 104 -234
246 -551 315 -705 68 -154 334 -750 590 -1325 791 -1776 805 -1809 807 -1786
0 10 -111 271 -226 527 -91 204 -217 493 -314 719 -121 281 -310 714 -594
1353 -162 364 -373 842 -471 1062 -1242 2807 -1310 2955 -1374 2955 -159 0
-406 -939 -477 -1810 -21 -267 -30 -1138 -15 -1455 46 -935 197 -1831 471
-2785 128 -447 193 -628 523 -1460 243 -612 311 -790 304 -796 -23 -23 -552
-31 -920 -13 -205 9 -221 9 -250 -8 -43 -25 -94 -104 -102 -157 -13 -83 33
-144 249 -329 543 -468 977 -742 1473 -933 l152 -59 102 -255 c121 -303 169
-434 169 -459 0 -26 -129 -108 -370 -234 -315 -165 -614 -272 -1007 -361 -172
-39 -206 -54 -233 -99 -43 -70 -15 -199 54 -252 36 -28 149 -67 361 -125 522
-144 968 -217 1484 -242 l249 -12 83 -210 c88 -223 177 -453 261 -676 84 -222
174 -387 248 -454 80 -72 125 -65 417 62 126 55 329 139 453 187 124 48 433
170 687 271 254 101 467 185 475 186 13 3 110 -174 123 -223 6 -23 1 -27 -112
-73 -396 -164 -385 -158 -446 -215 -64 -60 -90 -121 -95 -228 -7 -158 40 -244
193 -347 108 -74 143 -118 184 -230 32 -89 318 -967 601 -1841 505 -1564 712
-2192 744 -2254 64 -122 238 -200 369 -166 137 36 621 223 803 310 177 85 239
173 238 335 0 69 -7 93 -83 293 -45 120 -219 559 -386 975 -1215 3033 -1142
2848 -1132 2858 3 3 77 9 164 14 284 16 450 65 934 279 200 88 239 102 239 81
0 -5 -16 -51 -35 -102 -19 -51 -40 -115 -46 -143 -18 -74 -15 -287 5 -363 25
-99 875 -2416 944 -2576 68 -159 211 -300 397 -393 128 -64 251 -85 413 -72
113 10 183 29 277 76 279 139 455 417 457 723 1 155 -13 202 -235 800 -143
385 -254 689 -482 1310 -113 311 -231 616 -261 679 -51 103 -64 122 -152 210
-72 71 -120 108 -184 144 -142 79 -170 125 -98 158 31 15 296 112 615 227 464
166 1202 374 1726 486 494 105 1092 194 1524 226 83 6 202 14 265 19 168 13
817 13 1015 1 458 -28 780 -70 1287 -168 82 -16 150 -31 153 -34 3 -3 -32 -93
-79 -199 -338 -776 -506 -1277 -572 -1704 -27 -175 -25 -451 4 -557 29 -108
64 -170 133 -239 87 -87 166 -122 284 -127 249 -11 482 137 810 513 317 363
651 883 994 1545 62 118 115 218 120 223 12 12 361 -141 361 -158 0 -2 -75
-143 -166 -312 -398 -736 -402 -744 -384 -797 6 -18 27 -48 48 -68 30 -30 415
-247 992 -560 36 -19 236 -129 445 -243 462 -253 690 -369 754 -385 93 -22
108 -5 291 335 63 116 152 280 200 366 47 85 121 223 165 306 l80 150 115 7
c142 8 225 25 324 66 184 77 393 265 539 485 111 169 162 289 321 764 119 353
130 381 147 381 6 0 56 -33 112 -74 659 -478 1460 -773 2250 -827 212 -14 725
-6 884 15 984 129 1751 519 2069 1051 95 160 155 333 157 460 2 63 -2 87 -16
109 -35 52 -53 55 -494 65 -367 9 -422 12 -550 35 -450 81 -693 158 -1110 351
-46 21 -83 41 -83 44 0 4 75 44 168 90 305 152 539 300 748 473 134 111 389
369 501 505 204 251 423 623 546 933 64 161 89 271 90 400 1 171 -39 281 -123
338 -48 33 -79 27 -285 -53 -395 -153 -706 -232 -1105 -282 -210 -26 -832 -26
-1040 0 -309 38 -588 106 -896 217 -195 70 -208 76 -199 98 6 16 268 502 633
1172 85 157 271 499 412 760 142 261 357 660 480 885 122 226 296 545 385 710
479 885 630 1166 715 1325 51 96 109 199 128 229 46 73 41 120 -16 171 -21 19
-282 168 -578 330 -296 162 -595 325 -664 363 -756 415 -888 483 -961 493 -41
6 -49 3 -80 -24 -47 -41 -56 -57 -699 -1237 -640 -1174 -670 -1229 -1168
-2140 -195 -357 -369 -677 -387 -710 -389 -717 -480 -882 -490 -893 -10 -11
-52 13 -226 132 -118 80 -281 189 -364 242 -82 53 -154 100 -158 104 -12 10
41 149 178 471 70 162 129 299 131 305 3 6 32 28 64 49 33 21 73 56 90 76 35
43 150 254 332 605 205 395 193 366 192 464 0 74 -5 94 -32 154 -18 38 -32 74
-32 81 0 7 67 149 149 316 269 550 281 584 232 662 l-21 35 237 178 c1378
1030 2354 2035 2974 3060 293 485 499 988 593 1449 48 234 51 270 51 555 -1
291 -10 396 -50 565 -109 462 -325 780 -700 1034 -184 125 -314 175 -515 201
-72 9 -363 11 -425 3z m89 -271 c-12 -9 -59 -46 -105 -82 -337 -262 -747 -801
-1089 -1430 -548 -1009 -976 -2194 -1375 -3800 -52 -211 -97 -385 -100 -388
-21 -22 31 866 76 1268 86 789 250 1545 465 2155 260 734 623 1343 1038 1742
337 325 676 500 1051 546 59 8 61 7 39 -11z m496 -92 c0 -14 -139 -298 -704
-1438 -300 -607 -546 -1105 -546 -1107 0 -1 -241 -487 -535 -1080 -294 -593
-535 -1079 -535 -1081 0 -8 -602 -1209 -610 -1218 -26 -27 211 975 346 1459
286 1030 598 1874 960 2605 264 535 528 958 787 1265 143 171 426 434 552 513
102 65 285 117 285 82z m295 -213 c36 -114 47 -243 35 -414 -17 -242 -106
-670 -196 -947 -406 -1240 -1336 -2727 -2702 -4319 -79 -93 -146 -166 -148
-164 -3 3 397 809 888 1793 491 984 1159 2323 1483 2976 506 1017 592 1184
603 1170 7 -9 24 -52 37 -95z m386 -342 c185 -385 223 -897 104 -1416 -126
-549 -379 -1098 -773 -1679 -516 -762 -1254 -1529 -2172 -2260 -85 -68 -164
-130 -175 -139 -28 -22 -21 -14 141 184 324 394 516 639 750 955 782 1055
1328 1985 1685 2870 203 504 343 1079 356 1459 7 190 5 189 84 26z m-20182
-654 c20 -11 43 -26 49 -33 23 -29 160 -377 330 -843 143 -389 539 -1468 694
-1890 202 -550 229 -631 235 -696 5 -52 3 -58 -27 -93 -18 -20 -46 -44 -61
-52 -68 -35 -166 -1 -207 73 -21 39 -158 399 -317 833 -37 102 -114 311 -170
465 -57 154 -170 460 -250 680 -81 220 -162 441 -180 490 -295 792 -330 898
-319 949 23 109 129 165 223 117z m-711 -281 c50 -31 23 37 480 -1210 72 -195
190 -515 262 -710 73 -195 167 -452 210 -570 43 -118 111 -303 150 -410 40
-107 100 -276 135 -375 61 -174 62 -182 50 -220 -8 -21 -30 -54 -49 -74 -30
-30 -42 -35 -93 -38 -65 -5 -114 15 -145 57 -21 29 -130 317 -388 1025 -32 88
-104 284 -160 435 -56 151 -152 415 -215 585 -62 171 -177 483 -255 695 -240
650 -252 692 -211 758 12 18 35 41 53 52 45 27 131 27 176 0z m-787 -252 c56
-19 90 -48 111 -97 29 -67 109 -277 195 -511 41 -113 131 -356 198 -540 68
-184 189 -515 270 -735 81 -220 223 -607 317 -860 222 -601 248 -678 248 -742
0 -47 -4 -58 -36 -92 -59 -66 -135 -76 -211 -29 -46 28 -65 72 -281 663 -105
286 -221 601 -257 700 -37 99 -127 344 -200 545 -74 201 -208 568 -300 815
-230 623 -258 706 -249 751 8 43 53 98 103 124 43 23 48 23 92 8z m-676 -298
c39 -24 52 -52 178 -395 184 -497 973 -2646 1032 -2810 24 -66 50 -140 59
-164 52 -142 -37 -257 -179 -230 -99 19 -83 -15 -360 744 -111 304 -414 1128
-520 1415 -29 80 -72 195 -94 255 -282 769 -362 990 -367 1024 -14 85 22 149
98 178 43 16 112 8 153 -17z m-744 -265 c14 -8 33 -25 41 -37 24 -37 110 -260
318 -828 105 -289 277 -757 382 -1040 104 -283 263 -715 353 -960 90 -245 175
-478 190 -518 l27 -72 -28 -57 c-40 -78 -70 -98 -147 -98 -77 0 -120 27 -149
94 -32 73 -133 343 -503 1351 -714 1940 -725 1972 -725 2026 0 123 128 197
241 139z m-397 -3735 c436 -900 957 -2083 1996 -4530 78 -184 194 -456 257
-605 119 -278 163 -388 163 -405 0 -9 -150 -84 -155 -78 -2 2 -43 95 -93 208
-49 113 -161 365 -247 560 -86 195 -196 445 -245 555 -48 110 -123 279 -165
375 -647 1468 -1311 3083 -1702 4140 -122 330 -203 559 -202 568 1 8 240 -473
393 -788z m24050 -794 c44 -33 76 -93 76 -141 0 -20 -12 -67 -26 -103 -28 -70
-240 -491 -374 -742 -358 -670 -401 -748 -960 -1775 -294 -538 -525 -960 -793
-1445 -44 -80 -131 -239 -195 -355 -152 -278 -180 -325 -199 -325 -9 0 -86 37
-172 81 -194 101 -241 128 -241 140 0 22 -17 -9 1328 2459 250 459 470 864
490 900 271 500 620 1115 670 1184 38 51 118 120 167 143 20 9 57 12 112 10
70 -3 86 -7 117 -31z m-17928 -2939 c12 -11 -25 -46 -245 -231 -830 -696
-1355 -1066 -2141 -1506 -174 -98 -812 -423 -990 -505 -247 -113 -382 -176
-485 -225 -139 -65 -413 -190 -419 -190 -3 0 -39 -16 -81 -36 -68 -32 -75 -38
-75 -65 0 -22 5 -29 20 -29 68 0 637 179 910 287 718 283 1691 812 2420 1316
445 307 925 676 1171 899 48 43 89 78 91 78 8 0 7 -204 -2 -220 -5 -9 -76 -75
-158 -148 -402 -355 -783 -636 -1192 -877 -101 -59 -157 -90 -375 -206 -298
-157 -475 -269 -620 -392 -53 -45 -110 -92 -125 -105 -19 -16 -95 -41 -251
-81 -378 -99 -497 -143 -640 -236 -210 -135 -331 -326 -384 -601 -62 -324 70
-707 374 -1084 33 -41 61 -78 61 -81 0 -11 -35 -37 -240 -174 -242 -163 -290
-200 -290 -224 0 -33 24 -43 72 -31 96 26 464 192 576 261 22 13 26 11 81 -47
31 -33 67 -74 79 -92 l23 -31 -41 -26 c-163 -103 -455 -243 -726 -349 -334
-131 -362 -145 -385 -189 -10 -17 -8 -24 12 -40 20 -16 34 -18 90 -13 187 17
559 150 964 343 121 58 227 107 235 109 14 4 149 -154 205 -240 l19 -29 -29
-24 c-73 -60 -404 -203 -651 -283 -690 -221 -1437 -255 -2338 -104 -178 29
-191 35 -139 56 21 9 94 40 163 69 558 233 1092 618 1511 1091 143 161 174
239 131 325 -32 63 -68 74 -317 98 -689 68 -1300 285 -1885 669 -193 126 -390
279 -390 304 0 4 21 7 48 8 26 0 139 2 252 4 1015 16 2044 299 2942 811 509
290 882 570 1673 1253 594 514 828 666 1115 731 68 15 361 17 376 2z m11797
-73 c76 -19 233 -93 362 -169 124 -73 146 -82 225 -89 45 -5 80 -16 120 -38
130 -73 573 -372 1009 -681 124 -88 249 -176 276 -195 986 -697 1468 -976
2025 -1172 775 -274 1683 -330 2496 -155 147 32 362 91 555 154 86 28 162 51
168 51 58 0 -115 -440 -290 -735 -183 -310 -487 -658 -772 -883 -261 -206
-657 -421 -999 -541 -167 -58 -208 -90 -216 -169 -9 -95 32 -140 235 -261 486
-288 1067 -482 1618 -540 166 -17 467 -33 512 -27 32 4 43 2 43 -7 0 -8 -24
-54 -52 -103 -64 -108 -239 -289 -368 -381 -387 -275 -984 -483 -1534 -535
-156 -14 -679 -14 -821 1 -540 58 -1126 243 -1600 506 -189 105 -565 363 -565
388 0 21 111 197 124 197 8 0 20 -7 27 -17 20 -23 186 -147 299 -223 533 -358
1144 -600 1682 -665 55 -7 59 -6 88 23 18 18 30 41 30 57 0 50 -34 68 -286
150 -534 173 -912 334 -1240 531 -130 77 -484 312 -484 320 0 13 41 82 55 94
15 12 23 11 59 -9 371 -208 859 -365 917 -295 22 26 16 84 -10 105 -13 11 -96
42 -185 70 -441 139 -686 231 -686 257 0 18 62 121 73 122 4 0 56 -22 115 -49
92 -41 168 -72 282 -111 121 -43 238 -54 270 -25 20 18 27 69 12 91 -17 26
-99 55 -412 144 -80 23 -153 43 -162 46 -10 3 -18 12 -18 21 0 8 39 81 86 161
167 280 286 556 361 837 60 226 63 235 77 235 7 0 49 -16 92 -36 148 -67 429
-187 508 -216 72 -26 80 -28 102 -13 28 18 42 78 23 101 -23 27 -49 39 -646
282 l-63 25 1 76 c1 86 12 187 21 197 4 3 71 -28 150 -69 354 -185 779 -359
914 -374 64 -7 90 7 104 55 20 71 -21 100 -277 196 -342 129 -708 281 -834
348 l-56 29 -31 120 c-32 121 -60 182 -128 272 -39 51 -38 52 56 6 302 -146
715 -292 961 -338 169 -33 223 -36 242 -16 24 23 30 56 18 89 -14 36 -72 62
-386 171 -298 103 -427 156 -681 279 -453 220 -832 455 -1700 1057 -976 676
-1368 915 -1924 1173 -211 98 -210 98 -210 108 0 14 180 9 243 -8z m-208 -193
c250 -135 503 -287 805 -487 279 -184 434 -290 1005 -689 143 -100 357 -248
475 -329 118 -81 222 -155 230 -163 13 -14 13 -15 -5 -10 -93 27 -360 127
-442 167 -187 89 -697 384 -1514 878 -246 148 -583 346 -711 417 -48 27 -89
55 -90 64 -7 36 12 162 30 205 l21 46 48 -23 c26 -12 93 -46 148 -76z m5 -507
c224 -168 602 -427 912 -624 64 -41 115 -76 113 -78 -2 -2 -57 17 -122 43
-372 149 -651 322 -868 540 -111 111 -222 244 -194 233 8 -3 80 -55 159 -114z
m-11541 -66 c-34 -68 -147 -236 -207 -307 -290 -348 -780 -647 -1337 -816
-156 -47 -386 -106 -398 -102 -10 3 248 148 510 286 540 283 994 591 1392 943
30 26 56 46 59 44 2 -2 -7 -24 -19 -48z m6411 -282 c19 -3 112 -10 205 -16
377 -24 987 -91 1325 -145 550 -89 1165 -237 1765 -425 665 -209 1250 -442
1840 -735 450 -222 673 -351 1160 -667 603 -390 916 -525 1301 -560 230 -21
449 23 674 135 69 34 128 63 131 65 21 10 -68 -338 -127 -494 -96 -257 -179
-405 -506 -899 -293 -442 -366 -562 -454 -736 -85 -170 -123 -270 -224 -581
-101 -312 -142 -429 -190 -538 -133 -302 -332 -504 -575 -585 -143 -48 -367
-45 -467 6 -22 11 -83 53 -136 93 -264 200 -784 522 -1167 724 -1245 657
-2610 1088 -3897 1232 -299 33 -438 38 -1038 36 -496 -3 -592 -6 -785 -25
-1166 -116 -2254 -369 -3445 -801 -486 -176 -907 -350 -1619 -669 -228 -102
-441 -188 -546 -220 -166 -51 -391 -67 -534 -37 -146 31 -294 126 -398 257
-102 129 -170 278 -345 759 -296 812 -433 1036 -1033 1685 -346 374 -419 467
-505 640 -68 138 -94 248 -93 400 0 260 79 397 284 498 89 43 276 108 356 123
33 6 35 5 28 -12 -40 -94 -49 -251 -21 -349 65 -225 297 -406 571 -445 171
-24 335 -3 563 71 339 111 625 257 1117 569 116 73 284 180 375 238 610 387
960 561 1515 752 936 322 2353 581 3605 659 139 9 1228 6 1290 -3z m-6292
-366 c53 -139 127 -246 248 -359 42 -39 75 -73 73 -75 -11 -8 -278 -166 -305
-179 l-31 -16 -83 172 c-45 95 -100 213 -122 264 -46 107 -57 76 81 236 l85
98 14 -38 c8 -21 26 -67 40 -103z m11852 -160 l99 -50 -55 -157 c-31 -87 -70
-202 -87 -257 -17 -54 -37 -100 -44 -103 -16 -6 -203 82 -203 95 0 6 18 32 41
58 82 100 139 263 139 404 0 33 2 60 5 60 3 0 50 -22 105 -50z m-12252 -245
c64 -114 131 -220 179 -283 18 -24 33 -47 33 -51 0 -9 -189 -132 -233 -152
-17 -7 -31 -9 -36 -3 -4 5 -36 77 -71 159 -34 83 -80 188 -101 234 -22 46 -39
85 -39 87 0 1 35 27 78 57 42 30 84 62 91 71 14 17 16 17 29 -1 7 -10 39 -63
70 -118z m12644 78 c35 -15 64 -28 66 -29 2 -1 -17 -48 -41 -105 -24 -57 -73
-178 -107 -269 -35 -91 -66 -168 -69 -172 -6 -7 -152 59 -185 84 -19 15 -16
21 58 164 129 248 190 354 203 354 6 0 40 -12 75 -27z m417 -148 c97 -25 101
-6 -69 -343 l-152 -301 -47 26 c-87 50 -141 88 -141 98 0 6 63 112 139 235 76
124 149 242 162 263 26 41 32 43 108 22z m-13474 -143 c28 -47 92 -149 143
-225 50 -76 92 -142 92 -147 0 -10 -135 -100 -173 -114 -40 -15 -52 -4 -114
109 -31 55 -91 157 -134 226 -44 70 -79 131 -79 136 0 8 195 103 210 102 3 0
28 -39 55 -87z m13915 5 c47 -14 76 -29 78 -38 2 -9 -35 -92 -82 -185 -92
-183 -191 -425 -205 -499 -5 -25 -11 -48 -14 -52 -6 -5 -74 34 -215 125 l-83
53 36 47 c19 26 102 146 184 267 199 296 205 304 216 305 6 0 44 -10 85 -23z
m-14350 -188 c64 -83 290 -417 290 -429 0 -9 -190 -119 -219 -127 -17 -4 -60
70 -235 409 l-86 166 72 25 c111 38 114 37 178 -44z m14886 11 c66 -23 123
-46 128 -51 15 -14 -14 -66 -175 -310 -82 -125 -178 -278 -213 -340 -99 -175
-73 -164 -212 -87 -65 37 -120 74 -122 82 -2 9 11 42 29 74 194 345 412 687
433 679 8 -3 67 -24 132 -47z m-15282 -142 c29 -46 95 -144 146 -218 51 -74
113 -164 137 -199 24 -35 42 -69 40 -74 -4 -13 -167 -96 -189 -97 -22 0 -56
56 -209 356 -144 282 -142 270 -64 298 73 27 80 24 139 -66z m-367 -98 c109
-205 200 -351 301 -484 43 -56 45 -59 26 -73 -20 -15 -120 -48 -175 -58 l-34
-6 -28 83 c-16 46 -75 180 -131 298 -109 228 -134 286 -124 296 12 11 83 34
101 31 12 -1 35 -33 64 -87z m16228 -15 c95 -51 106 -62 95 -90 -29 -76 -219
-350 -391 -565 l-110 -137 -52 9 c-71 13 -199 55 -276 89 l-65 29 55 57 c30
32 56 60 59 63 51 51 330 380 494 582 l38 48 42 -24 c22 -13 73 -40 111 -61z
m-16492 -180 c127 -212 185 -304 233 -368 24 -31 44 -62 44 -67 0 -28 -208 9
-297 52 -78 38 -152 106 -184 168 -19 36 -24 61 -24 120 1 65 5 83 32 136 33
63 90 122 104 107 4 -4 45 -71 92 -148z m16913 -107 c55 -57 74 -88 74 -116 0
-84 -169 -256 -315 -322 -72 -32 -189 -66 -267 -78 l-56 -9 134 144 c143 153
227 255 306 371 55 82 56 82 124 10z m-19833 -1118 c178 -51 355 -92 542 -125
189 -33 182 -30 159 -57 -29 -32 -220 -195 -244 -208 -25 -14 -13 -21 -290
184 -213 158 -326 246 -314 246 5 0 71 -18 147 -40z m13538 -2930 c70 -13 121
-50 175 -126 55 -77 70 -113 84 -200 12 -77 0 -185 -27 -237 -25 -49 -116
-132 -176 -161 -180 -88 -432 -2 -515 177 -87 189 -32 386 137 485 107 63 211
83 322 62z m-9838 -455 c90 -38 147 -126 147 -230 0 -150 -120 -260 -263 -241
-103 14 -167 60 -208 150 -51 112 7 256 126 315 49 25 147 27 198 6z m13385
-134 c37 -21 110 -60 162 -86 52 -26 97 -49 99 -51 9 -8 -326 -593 -368 -642
-24 -27 -80 -52 -118 -52 -120 0 -219 108 -198 217 13 68 319 653 342 653 8 0
45 -17 81 -39z m-11903 -3535 c86 -39 135 -123 135 -229 0 -190 -213 -302
-379 -199 -89 55 -131 171 -101 281 14 54 101 145 151 159 62 18 140 14 194
-12z"/>
<path d="M17795 24259 c-410 -24 -821 -133 -1193 -317 -186 -93 -299 -162
-523 -321 l-47 -33 -108 68 c-771 485 -1577 470 -2354 -42 -201 -133 -494
-417 -658 -639 -31 -41 -63 -75 -72 -75 -9 0 -68 18 -130 39 -203 70 -248 76
-570 76 -299 -1 -369 -7 -542 -51 -552 -138 -1024 -470 -1411 -991 -316 -427
-523 -969 -577 -1512 -30 -302 11 -738 95 -1005 l24 -79 -82 -76 c-261 -240
-390 -403 -516 -651 -269 -527 -257 -1112 31 -1541 185 -276 489 -470 863
-549 76 -16 151 -23 315 -27 321 -8 522 13 842 92 78 19 145 35 149 35 10 0
18 -216 24 -655 13 -1061 16 -1139 33 -1159 27 -29 68 -46 112 -46 23 0 132
22 243 49 1337 327 2673 533 3787 586 69 3 175 8 235 11 147 8 857 8 1020 0
294 -15 629 -38 765 -52 793 -81 1356 -188 2172 -412 368 -101 447 -79 477
133 23 165 31 482 31 1212 l0 751 50 11 c216 46 607 213 836 357 207 129 438
333 606 534 229 272 414 628 499 959 52 202 70 337 76 571 8 312 -16 491 -103
762 -102 317 -279 588 -532 815 -329 295 -731 448 -1237 470 l-143 6 -6 45
c-3 25 -6 84 -6 131 0 110 -15 294 -36 441 -147 1052 -741 1768 -1658 2000
-165 42 -325 67 -469 75 -50 3 -112 7 -137 8 -25 2 -103 0 -175 -4z m-48 -944
c281 -36 531 -112 765 -232 711 -363 1115 -1066 1142 -1983 4 -170 -8 -442
-24 -500 -20 -73 -207 -345 -339 -493 -34 -37 -61 -70 -61 -73 0 -13 89 47
192 130 143 114 354 320 449 439 127 158 153 181 244 210 142 46 222 59 410
64 282 8 462 -28 680 -138 187 -93 403 -270 489 -400 108 -164 195 -607 169
-864 l-10 -100 -2 70 c-2 105 -22 395 -31 440 l-7 40 -6 -35 c-3 -19 -16 -97
-27 -173 -105 -686 -481 -1239 -1034 -1522 -138 -70 -279 -120 -384 -135 -87
-13 -308 -13 -351 0 -43 12 -77 43 -104 95 -20 38 -22 58 -28 465 -10 640 -22
699 -191 948 -39 56 -74 102 -78 102 -10 0 -21 -34 -54 -166 -30 -121 -54
-183 -111 -291 -133 -252 -346 -434 -620 -529 -75 -25 -93 -28 -281 -32 -183
-4 -208 -2 -279 17 -190 52 -314 126 -462 272 -206 204 -287 391 -393 904
-126 615 -157 733 -238 910 -26 58 -49 105 -52 105 -3 0 -12 -44 -19 -97 -111
-835 -461 -1401 -1056 -1713 -297 -155 -601 -216 -1130 -227 -373 -7 -614 13
-862 72 -223 53 -325 97 -793 338 -269 138 -325 162 -492 206 -130 34 -190 46
-342 66 -144 20 -160 19 -152 -1 4 -10 -1 -22 -11 -29 -16 -12 -12 -16 40 -39
132 -58 304 -281 358 -463 30 -101 29 -227 -3 -319 -130 -372 -731 -701 -1588
-869 -265 -52 -547 -43 -731 25 -496 181 -546 754 -122 1395 145 219 378 485
481 549 48 30 55 50 15 40 -91 -22 -372 -111 -463 -148 l-109 -43 -20 76 c-81
302 -86 521 -17 772 154 560 493 984 1006 1257 818 437 1944 315 2810 -304
183 -130 309 -241 508 -443 221 -224 219 -226 78 54 -144 285 -294 508 -496
735 -56 63 -154 185 -218 270 -113 152 -248 315 -292 355 -12 11 -49 50 -81
86 l-59 67 132 83 c650 405 1357 460 1994 154 567 -273 1007 -810 1289 -1575
30 -82 51 -114 41 -65 -8 40 -32 244 -46 380 -59 592 -166 1073 -331 1488 -32
81 -59 156 -59 166 0 21 14 26 201 75 106 28 285 62 434 81 146 19 585 19 732
0z m-1962 -5320 c792 -37 1816 -171 2599 -340 88 -20 195 -42 236 -51 163 -34
507 -126 559 -150 82 -37 59 -49 -97 -50 -192 -2 -442 16 -1262 91 -140 13
-256 22 -258 20 -1 -1 50 -17 115 -34 297 -80 828 -257 1073 -358 294 -121
613 -291 790 -421 92 -67 275 -249 318 -317 50 -76 62 -131 62 -277 0 -97 -3
-130 -13 -134 -7 -2 -65 12 -128 31 -321 102 -435 137 -549 168 -564 157
-1148 263 -1820 331 -495 50 -520 51 -1425 51 -1003 0 -1125 -7 -1945 -100
-486 -56 -719 -68 -815 -44 -24 6 -54 22 -66 35 l-23 24 20 28 c41 57 273 155
664 280 141 46 133 48 -80 26 -233 -24 -745 -30 -914 -10 -307 36 -496 107
-576 218 -42 57 -53 100 -48 183 4 60 13 88 50 166 51 105 158 261 197 288
122 85 1333 310 1831 341 96 6 193 12 215 14 58 5 1149 -3 1290 -9z"/>
<path d="M28300 22797 c-229 -81 -426 -311 -551 -644 -44 -117 -75 -235 -159
-609 -74 -330 -91 -394 -135 -510 -86 -224 -260 -444 -390 -493 -75 -29 -115
-25 -255 24 -199 69 -230 77 -335 78 -87 2 -111 -2 -180 -26 -44 -16 -89 -35
-100 -43 -28 -21 -107 27 690 -417 286 -159 540 -301 565 -314 611 -342 819
-455 829 -449 20 13 -6 155 -44 242 -46 104 -107 170 -240 259 -166 112 -200
166 -199 315 2 113 26 195 105 353 105 208 152 266 523 644 147 150 293 303
323 340 223 270 333 601 282 845 -28 137 -129 269 -265 350 -107 63 -165 78
-293 78 -85 0 -119 -5 -171 -23z"/>
<path d="M19410 8088 c1 -66 14 -125 42 -186 31 -65 166 -198 257 -252 97 -57
176 -131 193 -178 21 -62 14 -206 -15 -287 -30 -87 -102 -236 -161 -336 -47
-80 -229 -282 -402 -449 -314 -301 -456 -476 -549 -673 -79 -168 -105 -272
-105 -423 0 -301 157 -514 422 -570 302 -65 599 112 792 469 96 179 148 349
231 756 99 487 135 590 284 813 88 131 188 229 261 253 77 26 137 16 266 -43
190 -86 338 -107 455 -63 57 22 139 74 139 89 0 4 -116 71 -257 147 -828 450
-1830 985 -1845 985 -4 0 -8 -24 -8 -52z"/>
</g>
</svg>
